<svg width="591" height="565" viewBox="0 0 591 565" fill="none" xmlns="http://www.w3.org/2000/svg">
<path d="M541.193 143.515H421.369C421.369 143.515 433.254 113.743 451.535 113.743C469.817 113.743 475.556 134.284 475.556 134.284C475.556 134.284 487.888 123.128 498.023 123.128C508.157 123.128 516.962 137.943 516.962 137.943C516.962 137.943 531.282 129.945 541.193 143.515Z" fill="#EBEBEB"/>
<path d="M436.585 66.9726H380.593C380.593 66.9726 393.107 50.2827 402.99 50.2827C412.873 50.2827 415.77 61.3622 415.77 61.3622C415.77 61.3622 422.769 56.2269 429.166 57.1256C435.563 58.0243 436.585 66.9726 436.585 66.9726Z" fill="#EBEBEB"/>
<path d="M136.439 157.792H27.3802C27.3802 157.792 42.3161 127.21 58.2879 125.298C74.2597 123.385 81.9166 148.021 81.9166 148.021C81.9166 148.021 92.2192 139.317 100.324 139.317C108.429 139.317 114.63 150.782 114.63 150.782C114.63 150.782 130.882 142.925 136.439 157.792Z" fill="#EBEBEB"/>
<path d="M249.585 29.3047H175.9C175.9 29.3047 188.498 7.14562 202.3 6.82466C216.102 6.5037 223.297 23.5916 223.297 23.5916C223.297 23.5916 244.602 7.87741 249.585 29.3047Z" fill="#EBEBEB"/>
<path d="M329.262 90.6081H279.541C279.541 90.6081 288.08 75.6514 297.347 75.446C306.613 75.2405 311.485 86.7566 311.485 86.7566C311.485 86.7566 325.903 76.1521 329.262 90.6081Z" fill="#EBEBEB"/>
<path d="M457.372 162.362H406.433V407.293H457.372V162.362Z" fill="#DBDBDB"/>
<path d="M424.239 170.322H414.342V179.668H424.239V170.322Z" fill="#EBEBEB"/>
<path d="M436.907 170.322H427.011V179.668H436.907V170.322Z" fill="#EBEBEB"/>
<path d="M424.239 186.203H414.342V195.549H424.239V186.203Z" fill="#EBEBEB"/>
<path d="M436.907 186.203H427.011V195.549H436.907V186.203Z" fill="#EBEBEB"/>
<path d="M424.239 202.084H414.342V211.43H424.239V202.084Z" fill="#EBEBEB"/>
<path d="M436.907 202.084H427.011V211.43H436.907V202.084Z" fill="#EBEBEB"/>
<path d="M424.239 217.952H414.342V227.299H424.239V217.952Z" fill="#EBEBEB"/>
<path d="M436.907 217.952H427.011V227.299H436.907V217.952Z" fill="#EBEBEB"/>
<path d="M424.239 233.833H414.342V243.18H424.239V233.833Z" fill="#EBEBEB"/>
<path d="M436.907 233.833H427.011V243.18H436.907V233.833Z" fill="#EBEBEB"/>
<path d="M424.239 249.714H414.342V259.061H424.239V249.714Z" fill="#EBEBEB"/>
<path d="M436.907 249.714H427.011V259.061H436.907V249.714Z" fill="#EBEBEB"/>
<path d="M424.239 265.596H414.342V274.942H424.239V265.596Z" fill="#EBEBEB"/>
<path d="M436.907 265.596H427.011V274.942H436.907V265.596Z" fill="#EBEBEB"/>
<path d="M424.239 281.464H414.342V290.81H424.239V281.464Z" fill="#EBEBEB"/>
<path d="M436.907 281.464H427.011V290.81H436.907V281.464Z" fill="#EBEBEB"/>
<path d="M424.239 297.345H414.342V306.691H424.239V297.345Z" fill="#EBEBEB"/>
<path d="M436.907 297.345H427.011V306.691H436.907V297.345Z" fill="#EBEBEB"/>
<path d="M424.239 313.226H414.342V322.572H424.239V313.226Z" fill="#EBEBEB"/>
<path d="M436.907 313.226H427.011V322.572H436.907V313.226Z" fill="#EBEBEB"/>
<path d="M424.239 329.094H414.342V338.441H424.239V329.094Z" fill="#EBEBEB"/>
<path d="M436.907 329.094H427.011V338.441H436.907V329.094Z" fill="#EBEBEB"/>
<path d="M424.239 344.975H414.342V354.322H424.239V344.975Z" fill="#EBEBEB"/>
<path d="M436.907 344.975H427.011V354.322H436.907V344.975Z" fill="#EBEBEB"/>
<path d="M424.239 360.857H414.342V370.203H424.239V360.857Z" fill="#EBEBEB"/>
<path d="M436.907 360.857H427.011V370.203H436.907V360.857Z" fill="#EBEBEB"/>
<path d="M424.239 376.738H414.342V386.084H424.239V376.738Z" fill="#EBEBEB"/>
<path d="M439.567 386.084H449.463V376.738H439.567V386.084Z" fill="#EBEBEB"/>
<path d="M439.567 370.203H449.463V360.857H439.567V370.203Z" fill="#EBEBEB"/>
<path d="M439.567 354.335H449.463V344.988H439.567V354.335Z" fill="#EBEBEB"/>
<path d="M439.567 338.454H449.463V329.107H439.567V338.454Z" fill="#EBEBEB"/>
<path d="M439.567 322.572H449.463V313.226H439.567V322.572Z" fill="#EBEBEB"/>
<path d="M439.567 306.691H449.463V297.345H439.567V306.691Z" fill="#EBEBEB"/>
<path d="M439.567 290.823H449.463V281.477H439.567V290.823Z" fill="#EBEBEB"/>
<path d="M439.567 274.929H449.463V265.583H439.567V274.929Z" fill="#EBEBEB"/>
<path d="M439.567 259.061H449.463V249.714H439.567V259.061Z" fill="#EBEBEB"/>
<path d="M439.567 243.193H449.463V233.846H439.567V243.193Z" fill="#EBEBEB"/>
<path d="M439.567 227.311H449.463V217.965H439.567V227.311Z" fill="#EBEBEB"/>
<path d="M439.567 211.43H449.463V202.084H439.567V211.43Z" fill="#EBEBEB"/>
<path d="M439.567 195.549H449.463V186.203H439.567V195.549Z" fill="#EBEBEB"/>
<path d="M439.567 179.681H449.463V170.335H439.567V179.681Z" fill="#EBEBEB"/>
<path d="M436.907 376.738H427.011V386.084H436.907V376.738Z" fill="#EBEBEB"/>
<path d="M497.533 162.362H457.372V407.293H497.533V162.362Z" fill="#A6A6A6"/>
<path d="M485.214 386.084H493.389V376.738H485.214V386.084Z" fill="#C7C7C7"/>
<path d="M474.772 386.084H482.947V376.738H474.772V386.084Z" fill="#C7C7C7"/>
<path d="M485.214 370.203H493.389V360.857H485.214V370.203Z" fill="#C7C7C7"/>
<path d="M474.772 370.203H482.947V360.857H474.772V370.203Z" fill="#C7C7C7"/>
<path d="M485.214 354.335H493.389V344.988H485.214V354.335Z" fill="#C7C7C7"/>
<path d="M474.772 354.335H482.947V344.988H474.772V354.335Z" fill="#C7C7C7"/>
<path d="M485.214 338.454H493.389V329.107H485.214V338.454Z" fill="#C7C7C7"/>
<path d="M474.772 338.454H482.947V329.107H474.772V338.454Z" fill="#C7C7C7"/>
<path d="M485.214 322.572H493.389V313.226H485.214V322.572Z" fill="#C7C7C7"/>
<path d="M474.772 322.572H482.947V313.226H474.772V322.572Z" fill="#C7C7C7"/>
<path d="M485.214 306.691H493.389V297.345H485.214V306.691Z" fill="#C7C7C7"/>
<path d="M474.772 306.691H482.947V297.345H474.772V306.691Z" fill="#C7C7C7"/>
<path d="M485.214 290.823H493.389V281.477H485.214V290.823Z" fill="#C7C7C7"/>
<path d="M474.772 290.823H482.947V281.477H474.772V290.823Z" fill="#C7C7C7"/>
<path d="M485.214 274.929H493.389V265.583H485.214V274.929Z" fill="#C7C7C7"/>
<path d="M474.772 274.929H482.947V265.583H474.772V274.929Z" fill="#C7C7C7"/>
<path d="M485.214 259.061H493.389V249.714H485.214V259.061Z" fill="#C7C7C7"/>
<path d="M474.772 259.061H482.947V249.714H474.772V259.061Z" fill="#C7C7C7"/>
<path d="M485.214 243.193H493.389V233.846H485.214V243.193Z" fill="#C7C7C7"/>
<path d="M474.772 243.193H482.947V233.846H474.772V243.193Z" fill="#C7C7C7"/>
<path d="M485.214 227.311H493.389V217.965H485.214V227.311Z" fill="#C7C7C7"/>
<path d="M474.772 227.311H482.947V217.965H474.772V227.311Z" fill="#C7C7C7"/>
<path d="M485.214 211.43H493.389V202.084H485.214V211.43Z" fill="#C7C7C7"/>
<path d="M474.772 211.43H482.947V202.084H474.772V211.43Z" fill="#C7C7C7"/>
<path d="M485.214 195.549H493.389V186.203H485.214V195.549Z" fill="#C7C7C7"/>
<path d="M474.772 195.549H482.947V186.203H474.772V195.549Z" fill="#C7C7C7"/>
<path d="M485.214 179.681H493.389V170.335H485.214V179.681Z" fill="#C7C7C7"/>
<path d="M472.56 170.322H464.385V179.668H472.56V170.322Z" fill="#C7C7C7"/>
<path d="M472.56 186.203H464.385V195.549H472.56V186.203Z" fill="#C7C7C7"/>
<path d="M472.56 202.084H464.385V211.43H472.56V202.084Z" fill="#C7C7C7"/>
<path d="M472.56 217.952H464.385V227.299H472.56V217.952Z" fill="#C7C7C7"/>
<path d="M472.56 233.833H464.385V243.18H472.56V233.833Z" fill="#C7C7C7"/>
<path d="M472.56 249.714H464.385V259.061H472.56V249.714Z" fill="#C7C7C7"/>
<path d="M472.56 265.596H464.385V274.942H472.56V265.596Z" fill="#C7C7C7"/>
<path d="M472.56 281.464H464.385V290.81H472.56V281.464Z" fill="#C7C7C7"/>
<path d="M472.56 297.345H464.385V306.691H472.56V297.345Z" fill="#C7C7C7"/>
<path d="M472.56 313.226H464.385V322.572H472.56V313.226Z" fill="#C7C7C7"/>
<path d="M472.56 329.094H464.385V338.441H472.56V329.094Z" fill="#C7C7C7"/>
<path d="M472.56 344.975H464.385V354.322H472.56V344.975Z" fill="#C7C7C7"/>
<path d="M472.56 360.857H464.385V370.203H472.56V360.857Z" fill="#C7C7C7"/>
<path d="M472.56 376.738H464.385V386.084H472.56V376.738Z" fill="#C7C7C7"/>
<path d="M474.772 179.681H482.947V170.335H474.772V179.681Z" fill="#C7C7C7"/>
<path d="M143.774 149.164H83.5124V407.293H143.774V149.164Z" fill="#EBEBEB"/>
<path d="M143.774 143.515H82.0566V149.164H143.774V143.515Z" fill="#C7C7C7"/>
<path d="M95.0608 157.496H88.9576V407.306H95.0608V157.496Z" fill="white"/>
<path d="M105.867 157.496H99.7641V407.306H105.867V157.496Z" fill="white"/>
<path d="M116.688 157.496H110.585V407.306H116.688V157.496Z" fill="white"/>
<path d="M127.508 157.496H121.405V407.306H127.508V157.496Z" fill="white"/>
<path d="M138.315 157.496H132.212V407.306H138.315V157.496Z" fill="white"/>
<path d="M95.0608 164.634H88.9576V175.791H95.0608V164.634Z" fill="#EBEBEB"/>
<path d="M105.867 164.634H99.7641V175.791H105.867V164.634Z" fill="#EBEBEB"/>
<path d="M116.688 164.634H110.585V175.791H116.688V164.634Z" fill="#EBEBEB"/>
<path d="M127.508 164.634H121.405V175.791H127.508V164.634Z" fill="#EBEBEB"/>
<path d="M138.315 164.634H132.212V175.791H138.315V164.634Z" fill="#EBEBEB"/>
<path d="M95.0608 182.762H88.9576V193.919H95.0608V182.762Z" fill="#EBEBEB"/>
<path d="M105.867 182.762H99.7641V193.919H105.867V182.762Z" fill="#EBEBEB"/>
<path d="M116.688 182.762H110.585V193.919H116.688V182.762Z" fill="#EBEBEB"/>
<path d="M127.508 182.762H121.405V193.919H127.508V182.762Z" fill="#EBEBEB"/>
<path d="M138.315 182.762H132.212V193.919H138.315V182.762Z" fill="#EBEBEB"/>
<path d="M95.0608 200.89H88.9576V212.047H95.0608V200.89Z" fill="#EBEBEB"/>
<path d="M105.867 200.89H99.7641V212.047H105.867V200.89Z" fill="#EBEBEB"/>
<path d="M116.688 200.89H110.585V212.047H116.688V200.89Z" fill="#EBEBEB"/>
<path d="M127.508 200.89H121.405V212.047H127.508V200.89Z" fill="#EBEBEB"/>
<path d="M138.315 200.89H132.212V212.047H138.315V200.89Z" fill="#EBEBEB"/>
<path d="M95.0608 219.031H88.9576V230.187H95.0608V219.031Z" fill="#EBEBEB"/>
<path d="M105.867 219.031H99.7641V230.187H105.867V219.031Z" fill="#EBEBEB"/>
<path d="M116.688 219.031H110.585V230.187H116.688V219.031Z" fill="#EBEBEB"/>
<path d="M127.508 219.031H121.405V230.187H127.508V219.031Z" fill="#EBEBEB"/>
<path d="M138.315 219.031H132.212V230.187H138.315V219.031Z" fill="#EBEBEB"/>
<path d="M95.0608 237.159H88.9576V248.315H95.0608V237.159Z" fill="#EBEBEB"/>
<path d="M105.867 237.159H99.7641V248.315H105.867V237.159Z" fill="#EBEBEB"/>
<path d="M116.688 237.159H110.585V248.315H116.688V237.159Z" fill="#EBEBEB"/>
<path d="M127.508 237.159H121.405V248.315H127.508V237.159Z" fill="#EBEBEB"/>
<path d="M138.315 237.159H132.212V248.315H138.315V237.159Z" fill="#EBEBEB"/>
<path d="M95.0608 255.286H88.9576V266.443H95.0608V255.286Z" fill="#EBEBEB"/>
<path d="M105.867 255.286H99.7641V266.443H105.867V255.286Z" fill="#EBEBEB"/>
<path d="M116.688 255.286H110.585V266.443H116.688V255.286Z" fill="#EBEBEB"/>
<path d="M127.508 255.286H121.405V266.443H127.508V255.286Z" fill="#EBEBEB"/>
<path d="M138.315 255.286H132.212V266.443H138.315V255.286Z" fill="#EBEBEB"/>
<path d="M95.0608 273.414H88.9576V284.571H95.0608V273.414Z" fill="#EBEBEB"/>
<path d="M105.867 273.414H99.7641V284.571H105.867V273.414Z" fill="#EBEBEB"/>
<path d="M116.688 273.414H110.585V284.571H116.688V273.414Z" fill="#EBEBEB"/>
<path d="M127.508 273.414H121.405V284.571H127.508V273.414Z" fill="#EBEBEB"/>
<path d="M138.315 273.414H132.212V284.571H138.315V273.414Z" fill="#EBEBEB"/>
<path d="M95.0608 291.555H88.9576V302.711H95.0608V291.555Z" fill="#EBEBEB"/>
<path d="M105.867 291.555H99.7641V302.711H105.867V291.555Z" fill="#EBEBEB"/>
<path d="M116.688 291.555H110.585V302.711H116.688V291.555Z" fill="#EBEBEB"/>
<path d="M127.508 291.555H121.405V302.711H127.508V291.555Z" fill="#EBEBEB"/>
<path d="M138.315 291.555H132.212V302.711H138.315V291.555Z" fill="#EBEBEB"/>
<path d="M95.0608 309.683H88.9576V320.839H95.0608V309.683Z" fill="#EBEBEB"/>
<path d="M105.867 309.683H99.7641V320.839H105.867V309.683Z" fill="#EBEBEB"/>
<path d="M116.688 309.683H110.585V320.839H116.688V309.683Z" fill="#EBEBEB"/>
<path d="M127.508 309.683H121.405V320.839H127.508V309.683Z" fill="#EBEBEB"/>
<path d="M138.315 309.683H132.212V320.839H138.315V309.683Z" fill="#EBEBEB"/>
<path d="M95.0608 327.811H88.9576V338.967H95.0608V327.811Z" fill="#EBEBEB"/>
<path d="M105.867 327.811H99.7641V338.967H105.867V327.811Z" fill="#EBEBEB"/>
<path d="M116.688 327.811H110.585V338.967H116.688V327.811Z" fill="#EBEBEB"/>
<path d="M127.508 327.811H121.405V338.967H127.508V327.811Z" fill="#EBEBEB"/>
<path d="M138.315 327.811H132.212V338.967H138.315V327.811Z" fill="#EBEBEB"/>
<path d="M95.0608 345.951H88.9576V357.108H95.0608V345.951Z" fill="#EBEBEB"/>
<path d="M105.867 345.951H99.7641V357.108H105.867V345.951Z" fill="#EBEBEB"/>
<path d="M116.688 345.951H110.585V357.108H116.688V345.951Z" fill="#EBEBEB"/>
<path d="M127.508 345.951H121.405V357.108H127.508V345.951Z" fill="#EBEBEB"/>
<path d="M138.315 345.951H132.212V357.108H138.315V345.951Z" fill="#EBEBEB"/>
<path d="M95.0608 364.079H88.9576V375.236H95.0608V364.079Z" fill="#EBEBEB"/>
<path d="M105.867 364.079H99.7641V375.236H105.867V364.079Z" fill="#EBEBEB"/>
<path d="M116.688 364.079H110.585V375.236H116.688V364.079Z" fill="#EBEBEB"/>
<path d="M127.508 364.079H121.405V375.236H127.508V364.079Z" fill="#EBEBEB"/>
<path d="M138.315 364.079H132.212V375.236H138.315V364.079Z" fill="#EBEBEB"/>
<path d="M95.0608 382.207H88.9576V393.363H95.0608V382.207Z" fill="#EBEBEB"/>
<path d="M105.867 382.207H99.7641V393.363H105.867V382.207Z" fill="#EBEBEB"/>
<path d="M116.688 382.207H110.585V393.363H116.688V382.207Z" fill="#EBEBEB"/>
<path d="M127.508 382.207H121.405V393.363H127.508V382.207Z" fill="#EBEBEB"/>
<path d="M138.315 382.207H132.212V393.363H138.315V382.207Z" fill="#EBEBEB"/>
<path d="M95.0608 400.335H88.9576V407.293H95.0608V400.335Z" fill="#EBEBEB"/>
<path d="M105.867 400.335H99.7641V407.293H105.867V400.335Z" fill="#EBEBEB"/>
<path d="M116.688 400.335H110.585V407.293H116.688V400.335Z" fill="#EBEBEB"/>
<path d="M127.508 400.335H121.405V407.293H127.508V400.335Z" fill="#EBEBEB"/>
<path d="M138.315 400.335H132.212V407.293H138.315V400.335Z" fill="#EBEBEB"/>
<path d="M182.465 149.164H143.774V407.293H182.465V149.164Z" fill="#DBDBDB"/>
<path d="M184.144 143.515H143.774V149.164H184.144V143.515Z" fill="#C7C7C7"/>
<path d="M155.322 157.496H149.219V407.306H155.322V157.496Z" fill="#C7C7C7"/>
<path d="M166.143 157.496H160.04V407.306H166.143V157.496Z" fill="#C7C7C7"/>
<path d="M176.963 157.496H170.86V407.306H176.963V157.496Z" fill="#C7C7C7"/>
<path d="M155.322 164.634H149.219V175.791H155.322V164.634Z" fill="#DBDBDB"/>
<path d="M166.143 164.634H160.04V175.791H166.143V164.634Z" fill="#DBDBDB"/>
<path d="M176.963 164.634H170.86V175.791H176.963V164.634Z" fill="#DBDBDB"/>
<path d="M155.322 182.762H149.219V193.919H155.322V182.762Z" fill="#DBDBDB"/>
<path d="M166.143 182.762H160.04V193.919H166.143V182.762Z" fill="#DBDBDB"/>
<path d="M176.963 182.762H170.86V193.919H176.963V182.762Z" fill="#DBDBDB"/>
<path d="M155.322 200.89H149.219V212.047H155.322V200.89Z" fill="#DBDBDB"/>
<path d="M166.143 200.89H160.04V212.047H166.143V200.89Z" fill="#DBDBDB"/>
<path d="M176.963 200.89H170.86V212.047H176.963V200.89Z" fill="#DBDBDB"/>
<path d="M155.322 219.031H149.219V230.187H155.322V219.031Z" fill="#DBDBDB"/>
<path d="M166.143 219.031H160.04V230.187H166.143V219.031Z" fill="#DBDBDB"/>
<path d="M176.963 219.031H170.86V230.187H176.963V219.031Z" fill="#DBDBDB"/>
<path d="M155.322 237.159H149.219V248.315H155.322V237.159Z" fill="#DBDBDB"/>
<path d="M166.143 237.159H160.04V248.315H166.143V237.159Z" fill="#DBDBDB"/>
<path d="M176.963 237.159H170.86V248.315H176.963V237.159Z" fill="#DBDBDB"/>
<path d="M155.322 255.286H149.219V266.443H155.322V255.286Z" fill="#DBDBDB"/>
<path d="M166.143 255.286H160.04V266.443H166.143V255.286Z" fill="#DBDBDB"/>
<path d="M176.963 255.286H170.86V266.443H176.963V255.286Z" fill="#DBDBDB"/>
<path d="M155.322 273.414H149.219V284.571H155.322V273.414Z" fill="#DBDBDB"/>
<path d="M166.143 273.414H160.04V284.571H166.143V273.414Z" fill="#DBDBDB"/>
<path d="M176.963 273.414H170.86V284.571H176.963V273.414Z" fill="#DBDBDB"/>
<path d="M155.322 291.555H149.219V302.711H155.322V291.555Z" fill="#DBDBDB"/>
<path d="M166.143 291.555H160.04V302.711H166.143V291.555Z" fill="#DBDBDB"/>
<path d="M176.963 291.555H170.86V302.711H176.963V291.555Z" fill="#DBDBDB"/>
<path d="M155.322 309.683H149.219V320.839H155.322V309.683Z" fill="#DBDBDB"/>
<path d="M166.143 309.683H160.04V320.839H166.143V309.683Z" fill="#DBDBDB"/>
<path d="M176.963 309.683H170.86V320.839H176.963V309.683Z" fill="#DBDBDB"/>
<path d="M155.322 327.811H149.219V338.967H155.322V327.811Z" fill="#DBDBDB"/>
<path d="M166.143 327.811H160.04V338.967H166.143V327.811Z" fill="#DBDBDB"/>
<path d="M176.963 327.811H170.86V338.967H176.963V327.811Z" fill="#DBDBDB"/>
<path d="M155.322 345.951H149.219V357.108H155.322V345.951Z" fill="#DBDBDB"/>
<path d="M166.143 345.951H160.04V357.108H166.143V345.951Z" fill="#DBDBDB"/>
<path d="M176.963 345.951H170.86V357.108H176.963V345.951Z" fill="#DBDBDB"/>
<path d="M155.322 364.079H149.219V375.236H155.322V364.079Z" fill="#DBDBDB"/>
<path d="M166.143 364.079H160.04V375.236H166.143V364.079Z" fill="#DBDBDB"/>
<path d="M176.963 364.079H170.86V375.236H176.963V364.079Z" fill="#DBDBDB"/>
<path d="M155.322 382.207H149.219V393.363H155.322V382.207Z" fill="#DBDBDB"/>
<path d="M166.143 382.207H160.04V393.363H166.143V382.207Z" fill="#DBDBDB"/>
<path d="M176.963 382.207H170.86V393.363H176.963V382.207Z" fill="#DBDBDB"/>
<path d="M155.322 400.335H149.219V407.293H155.322V400.335Z" fill="#DBDBDB"/>
<path d="M166.143 400.335H160.04V407.293H166.143V400.335Z" fill="#DBDBDB"/>
<path d="M176.963 400.335H170.86V407.293H176.963V400.335Z" fill="#DBDBDB"/>
<path d="M67.8626 244.027H7.85291V407.293H67.8626V244.027Z" fill="#EBEBEB"/>
<path d="M67.8486 230.187H16.3777V244.027H67.8486V230.187Z" fill="#C7C7C7"/>
<path d="M61.2835 251.255H14.432V407.293H61.2835V251.255Z" fill="#DBDBDB"/>
<path d="M61.2835 266.148H14.432V269.832H61.2835V266.148Z" fill="white"/>
<path d="M61.2835 281.413H14.432V285.097H61.2835V281.413Z" fill="white"/>
<path d="M61.2835 296.69H14.432V300.375H61.2835V296.69Z" fill="white"/>
<path d="M61.2835 311.968H14.432V315.653H61.2835V311.968Z" fill="white"/>
<path d="M61.2835 327.233H14.432V330.917H61.2835V327.233Z" fill="white"/>
<path d="M61.2835 342.51H14.432V346.195H61.2835V342.51Z" fill="white"/>
<path d="M61.2835 357.788H14.432V361.473H61.2835V357.788Z" fill="white"/>
<path d="M61.2835 373.053H14.432V376.738H61.2835V373.053Z" fill="white"/>
<path d="M61.2835 388.331H14.432V392.015H61.2835V388.331Z" fill="white"/>
<path d="M61.2835 403.608H14.432V407.293H61.2835V403.608Z" fill="white"/>
<path d="M105.447 244.027H67.8625V407.293H105.447V244.027Z" fill="#DBDBDB"/>
<path d="M99.8061 230.187H67.8625V244.027H99.8061V230.187Z" fill="#A6A6A6"/>
<path d="M101.948 251.255H73.0418V407.293H101.948V251.255Z" fill="#C7C7C7"/>
<path d="M101.948 266.148H73.0418V269.832H101.948V266.148Z" fill="white"/>
<path d="M101.948 281.413H73.0418V285.097H101.948V281.413Z" fill="white"/>
<path d="M101.948 296.69H73.0418V300.375H101.948V296.69Z" fill="white"/>
<path d="M101.948 311.968H73.0418V315.653H101.948V311.968Z" fill="white"/>
<path d="M101.948 327.233H73.0418V330.917H101.948V327.233Z" fill="white"/>
<path d="M101.948 342.51H73.0418V346.195H101.948V342.51Z" fill="white"/>
<path d="M101.948 357.788H73.0418V361.473H101.948V357.788Z" fill="white"/>
<path d="M101.948 373.053H73.0418V376.738H101.948V373.053Z" fill="white"/>
<path d="M101.948 388.331H73.0418V392.015H101.948V388.331Z" fill="white"/>
<path d="M101.948 403.608H73.0418V407.293H101.948V403.608Z" fill="white"/>
<path d="M220.007 311.711H173.618V407.293H220.007V311.711Z" fill="#DBDBDB"/>
<path d="M189.114 319.992H180.911V325.846H189.114V319.992Z" fill="#C7C7C7"/>
<path d="M189.114 332.497H180.911V338.351H189.114V332.497Z" fill="#C7C7C7"/>
<path d="M189.114 345.001H180.911V350.855H189.114V345.001Z" fill="#C7C7C7"/>
<path d="M189.114 357.506H180.911V363.36H189.114V357.506Z" fill="#C7C7C7"/>
<path d="M189.114 370.023H180.911V375.878H189.114V370.023Z" fill="#C7C7C7"/>
<path d="M189.114 382.528H180.911V388.382H189.114V382.528Z" fill="#C7C7C7"/>
<path d="M189.114 395.032H180.911V400.887H189.114V395.032Z" fill="#C7C7C7"/>
<path d="M200.942 319.992H192.725V325.846H200.942V319.992Z" fill="#C7C7C7"/>
<path d="M200.942 332.497H192.725V338.351H200.942V332.497Z" fill="#C7C7C7"/>
<path d="M200.942 345.001H192.725V350.855H200.942V345.001Z" fill="#C7C7C7"/>
<path d="M200.942 357.506H192.725V363.36H200.942V357.506Z" fill="#C7C7C7"/>
<path d="M200.942 370.023H192.725V375.878H200.942V370.023Z" fill="#C7C7C7"/>
<path d="M200.942 382.528H192.725V388.382H200.942V382.528Z" fill="#C7C7C7"/>
<path d="M200.942 395.032H192.725V400.887H200.942V395.032Z" fill="#C7C7C7"/>
<path d="M212.728 319.992H204.512V325.846H212.728V319.992Z" fill="#C7C7C7"/>
<path d="M212.728 332.497H204.512V338.351H212.728V332.497Z" fill="#C7C7C7"/>
<path d="M212.728 345.001H204.512V350.855H212.728V345.001Z" fill="#C7C7C7"/>
<path d="M212.728 357.506H204.512V363.36H212.728V357.506Z" fill="#C7C7C7"/>
<path d="M212.728 370.023H204.512V375.878H212.728V370.023Z" fill="#C7C7C7"/>
<path d="M212.728 382.528H204.512V388.382H212.728V382.528Z" fill="#C7C7C7"/>
<path d="M212.728 395.032H204.512V400.887H212.728V395.032Z" fill="#C7C7C7"/>
<path d="M252.553 311.711H220.007V407.293H252.553V311.711Z" fill="#A6A6A6"/>
<path d="M242.558 399.962H249.235V394.108H242.558V399.962Z" fill="#C7C7C7"/>
<path d="M242.558 387.445H249.235V381.591H242.558V387.445Z" fill="#C7C7C7"/>
<path d="M242.558 374.94H249.235V369.086H242.558V374.94Z" fill="#C7C7C7"/>
<path d="M242.558 362.423H249.235V356.569H242.558V362.423Z" fill="#C7C7C7"/>
<path d="M242.558 349.931H249.235V344.077H242.558V349.931Z" fill="#C7C7C7"/>
<path d="M242.558 337.414H249.235V331.559H242.558V337.414Z" fill="#C7C7C7"/>
<path d="M242.558 324.909H249.235V319.055H242.558V324.909Z" fill="#C7C7C7"/>
<path d="M232.942 399.962H239.619V394.108H232.942V399.962Z" fill="#C7C7C7"/>
<path d="M232.942 387.445H239.619V381.591H232.942V387.445Z" fill="#C7C7C7"/>
<path d="M232.942 374.94H239.619V369.086H232.942V374.94Z" fill="#C7C7C7"/>
<path d="M232.942 362.423H239.619V356.569H232.942V362.423Z" fill="#C7C7C7"/>
<path d="M232.942 349.931H239.619V344.077H232.942V349.931Z" fill="#C7C7C7"/>
<path d="M232.942 337.414H239.619V331.559H232.942V337.414Z" fill="#C7C7C7"/>
<path d="M232.942 324.909H239.619V319.055H232.942V324.909Z" fill="#C7C7C7"/>
<path d="M223.353 399.962H230.03V394.108H223.353V399.962Z" fill="#C7C7C7"/>
<path d="M223.353 387.445H230.03V381.591H223.353V387.445Z" fill="#C7C7C7"/>
<path d="M223.353 374.94H230.03V369.086H223.353V374.94Z" fill="#C7C7C7"/>
<path d="M223.353 362.423H230.03V356.569H223.353V362.423Z" fill="#C7C7C7"/>
<path d="M223.353 349.931H230.03V344.077H223.353V349.931Z" fill="#C7C7C7"/>
<path d="M223.353 337.414H230.03V331.559H223.353V337.414Z" fill="#C7C7C7"/>
<path d="M223.353 324.909H230.03V319.055H223.353V324.909Z" fill="#C7C7C7"/>
<path d="M533.088 202.084H501.032V236.812H533.088V202.084Z" fill="#DBDBDB"/>
<path d="M553.413 202.084H533.088V238.083H553.413V202.084Z" fill="#C7C7C7"/>
<path d="M554.757 217.413H534.586V238.083H554.757V217.413Z" fill="#DBDBDB"/>
<path d="M567.341 217.413H554.757V238.083H567.341V217.413Z" fill="#C7C7C7"/>
<path d="M540.563 234.539H488.742V407.293H540.563V234.539Z" fill="#EBEBEB"/>
<path d="M510.957 241.973H494.663V248.084H510.957V241.973Z" fill="white"/>
<path d="M531.8 241.973H515.506V248.084H531.8V241.973Z" fill="white"/>
<path d="M510.957 252.346H494.663V258.457H510.957V252.346Z" fill="white"/>
<path d="M531.8 252.346H515.506V258.457H531.8V252.346Z" fill="white"/>
<path d="M510.957 262.707H494.663V268.818H510.957V262.707Z" fill="white"/>
<path d="M531.8 262.707H515.506V268.818H531.8V262.707Z" fill="white"/>
<path d="M510.957 273.08H494.663V279.191H510.957V273.08Z" fill="white"/>
<path d="M531.8 273.08H515.506V279.191H531.8V273.08Z" fill="white"/>
<path d="M510.957 283.441H494.663V289.552H510.957V283.441Z" fill="white"/>
<path d="M531.8 283.441H515.506V289.552H531.8V283.441Z" fill="white"/>
<path d="M510.957 293.814H494.663V299.925H510.957V293.814Z" fill="white"/>
<path d="M531.8 293.814H515.506V299.925H531.8V293.814Z" fill="white"/>
<path d="M510.957 304.188H494.663V310.299H510.957V304.188Z" fill="white"/>
<path d="M531.8 304.188H515.506V310.299H531.8V304.188Z" fill="white"/>
<path d="M510.957 314.548H494.663V320.66H510.957V314.548Z" fill="white"/>
<path d="M531.8 314.548H515.506V320.66H531.8V314.548Z" fill="white"/>
<path d="M510.957 324.922H494.663V331.033H510.957V324.922Z" fill="white"/>
<path d="M531.8 324.922H515.506V331.033H531.8V324.922Z" fill="white"/>
<path d="M510.957 335.295H494.663V341.406H510.957V335.295Z" fill="white"/>
<path d="M531.8 335.295H515.506V341.406H531.8V335.295Z" fill="white"/>
<path d="M510.957 345.656H494.663V351.767H510.957V345.656Z" fill="white"/>
<path d="M531.8 345.656H515.506V351.767H531.8V345.656Z" fill="white"/>
<path d="M510.957 356.029H494.663V362.14H510.957V356.029Z" fill="white"/>
<path d="M531.8 356.029H515.506V362.14H531.8V356.029Z" fill="white"/>
<path d="M510.957 366.403H494.663V372.514H510.957V366.403Z" fill="white"/>
<path d="M531.8 366.403H515.506V372.514H531.8V366.403Z" fill="white"/>
<path d="M510.957 376.763H494.663V382.874H510.957V376.763Z" fill="white"/>
<path d="M531.8 376.763H515.506V382.874H531.8V376.763Z" fill="white"/>
<path d="M582.557 234.539H540.563V407.293H582.557V234.539Z" fill="#C7C7C7"/>
<path d="M564.961 382.874H578.344V376.763H564.961V382.874Z" fill="#EBEBEB"/>
<path d="M547.856 382.874H561.238V376.763H547.856V382.874Z" fill="#EBEBEB"/>
<path d="M564.961 372.501H578.344V366.39H564.961V372.501Z" fill="#EBEBEB"/>
<path d="M547.856 372.501H561.238V366.39H547.856V372.501Z" fill="#EBEBEB"/>
<path d="M564.961 362.14H578.344V356.029H564.961V362.14Z" fill="#EBEBEB"/>
<path d="M547.856 362.14H561.238V356.029H547.856V362.14Z" fill="#EBEBEB"/>
<path d="M564.961 351.767H578.344V345.656H564.961V351.767Z" fill="#EBEBEB"/>
<path d="M547.856 351.767H561.238V345.656H547.856V351.767Z" fill="#EBEBEB"/>
<path d="M564.961 341.394H578.344V335.282H564.961V341.394Z" fill="#EBEBEB"/>
<path d="M547.856 341.394H561.238V335.282H547.856V341.394Z" fill="#EBEBEB"/>
<path d="M564.961 331.033H578.344V324.922H564.961V331.033Z" fill="#EBEBEB"/>
<path d="M547.856 331.033H561.238V324.922H547.856V331.033Z" fill="#EBEBEB"/>
<path d="M564.961 320.672H578.344V314.561H564.961V320.672Z" fill="#EBEBEB"/>
<path d="M547.856 320.672H561.238V314.561H547.856V320.672Z" fill="#EBEBEB"/>
<path d="M564.961 310.286H578.344V304.175H564.961V310.286Z" fill="#EBEBEB"/>
<path d="M547.856 310.286H561.238V304.175H547.856V310.286Z" fill="#EBEBEB"/>
<path d="M564.961 299.925H578.344V293.814H564.961V299.925Z" fill="#EBEBEB"/>
<path d="M547.856 299.925H561.238V293.814H547.856V299.925Z" fill="#EBEBEB"/>
<path d="M564.961 289.565H578.344V283.454H564.961V289.565Z" fill="#EBEBEB"/>
<path d="M547.856 289.565H561.238V283.454H547.856V289.565Z" fill="#EBEBEB"/>
<path d="M564.961 279.179H578.344V273.068H564.961V279.179Z" fill="#EBEBEB"/>
<path d="M547.856 279.179H561.238V273.068H547.856V279.179Z" fill="#EBEBEB"/>
<path d="M564.961 268.818H578.344V262.707H564.961V268.818Z" fill="#EBEBEB"/>
<path d="M547.856 268.818H561.238V262.707H547.856V268.818Z" fill="#EBEBEB"/>
<path d="M564.961 258.445H578.344V252.334H564.961V258.445Z" fill="#EBEBEB"/>
<path d="M547.856 258.445H561.238V252.334H547.856V258.445Z" fill="#EBEBEB"/>
<path d="M564.961 248.071H578.344V241.96H564.961V248.071Z" fill="#EBEBEB"/>
<path d="M547.856 248.071H561.238V241.96H547.856V248.071Z" fill="#EBEBEB"/>
<path d="M353.367 294.726H292.237V407.293H353.367V294.726Z" fill="#C7C7C7"/>
<path d="M312.675 304.47H301.854V311.364H312.675V304.47Z" fill="#DBDBDB"/>
<path d="M312.675 319.209H301.854V326.103H312.675V319.209Z" fill="#DBDBDB"/>
<path d="M312.675 333.934H301.854V340.829H312.675V333.934Z" fill="#DBDBDB"/>
<path d="M312.675 348.66H301.854V355.554H312.675V348.66Z" fill="#DBDBDB"/>
<path d="M312.675 363.399H301.854V370.293H312.675V363.399Z" fill="#DBDBDB"/>
<path d="M312.675 378.124H301.854V385.018H312.675V378.124Z" fill="#DBDBDB"/>
<path d="M312.675 392.85H301.854V399.744H312.675V392.85Z" fill="#DBDBDB"/>
<path d="M328.24 304.47H317.42V311.364H328.24V304.47Z" fill="#DBDBDB"/>
<path d="M328.24 319.209H317.42V326.103H328.24V319.209Z" fill="#DBDBDB"/>
<path d="M328.24 333.934H317.42V340.829H328.24V333.934Z" fill="#DBDBDB"/>
<path d="M328.24 348.66H317.42V355.554H328.24V348.66Z" fill="#DBDBDB"/>
<path d="M328.24 363.399H317.42V370.293H328.24V363.399Z" fill="#DBDBDB"/>
<path d="M328.24 378.124H317.42V385.018H328.24V378.124Z" fill="#DBDBDB"/>
<path d="M328.24 392.85H317.42V399.744H328.24V392.85Z" fill="#DBDBDB"/>
<path d="M343.764 304.47H332.944V311.364H343.764V304.47Z" fill="#DBDBDB"/>
<path d="M343.764 319.209H332.944V326.103H343.764V319.209Z" fill="#DBDBDB"/>
<path d="M343.764 333.934H332.944V340.829H343.764V333.934Z" fill="#DBDBDB"/>
<path d="M343.764 348.66H332.944V355.554H343.764V348.66Z" fill="#DBDBDB"/>
<path d="M343.764 363.399H332.944V370.293H343.764V363.399Z" fill="#DBDBDB"/>
<path d="M343.764 378.124H332.944V385.018H343.764V378.124Z" fill="#DBDBDB"/>
<path d="M343.764 392.85H332.944V399.744H343.764V392.85Z" fill="#DBDBDB"/>
<path d="M353.367 283.004H312.675V294.739H353.367V283.004Z" fill="#DBDBDB"/>
<path d="M353.367 275.738H327.568V283.004H353.367V275.738Z" fill="#EBEBEB"/>
<path d="M396.257 294.726H353.367V407.293H396.257V294.726Z" fill="#A6A6A6"/>
<path d="M383.071 398.653H391.875V391.759H383.071V398.653Z" fill="#C7C7C7"/>
<path d="M383.071 383.927H391.875V377.033H383.071V383.927Z" fill="#C7C7C7"/>
<path d="M383.071 369.189H391.875V362.294H383.071V369.189Z" fill="#C7C7C7"/>
<path d="M383.071 354.45H391.875V347.556H383.071V354.45Z" fill="#C7C7C7"/>
<path d="M383.071 339.737H391.875V332.843H383.071V339.737Z" fill="#C7C7C7"/>
<path d="M383.071 324.999H391.875V318.105H383.071V324.999Z" fill="#C7C7C7"/>
<path d="M383.071 310.273H391.875V303.379H383.071V310.273Z" fill="#C7C7C7"/>
<path d="M370.402 398.653H379.207V391.759H370.402V398.653Z" fill="#C7C7C7"/>
<path d="M370.402 383.927H379.207V377.033H370.402V383.927Z" fill="#C7C7C7"/>
<path d="M370.402 369.189H379.207V362.294H370.402V369.189Z" fill="#C7C7C7"/>
<path d="M370.402 354.45H379.207V347.556H370.402V354.45Z" fill="#C7C7C7"/>
<path d="M370.402 339.737H379.207V332.843H370.402V339.737Z" fill="#C7C7C7"/>
<path d="M370.402 324.999H379.207V318.105H370.402V324.999Z" fill="#C7C7C7"/>
<path d="M370.402 310.273H379.207V303.379H370.402V310.273Z" fill="#C7C7C7"/>
<path d="M357.762 398.653H366.567V391.759H357.762V398.653Z" fill="#C7C7C7"/>
<path d="M357.762 383.927H366.567V377.033H357.762V383.927Z" fill="#C7C7C7"/>
<path d="M357.762 369.189H366.567V362.294H357.762V369.189Z" fill="#C7C7C7"/>
<path d="M357.762 354.45H366.567V347.556H357.762V354.45Z" fill="#C7C7C7"/>
<path d="M357.762 339.737H366.567V332.843H357.762V339.737Z" fill="#C7C7C7"/>
<path d="M357.762 324.999H366.567V318.105H357.762V324.999Z" fill="#C7C7C7"/>
<path d="M357.762 310.273H366.567V303.379H357.762V310.273Z" fill="#C7C7C7"/>
<path d="M389.762 283.004H353.367V294.739H389.762V283.004Z" fill="#C7C7C7"/>
<path d="M373.09 275.738H353.367V283.004H373.09V275.738Z" fill="#DBDBDB"/>
<path d="M295.205 565C441.799 565 560.636 556.142 560.636 545.216C560.636 534.29 441.799 525.432 295.205 525.432C148.611 525.432 29.7739 534.29 29.7739 545.216C29.7739 556.142 148.611 565 295.205 565Z" fill="#EBEBEB"/>
<path d="M0 416.627L73.7977 416.318L147.609 416.203L295.205 415.985L442.8 416.203L516.612 416.306L590.41 416.627L516.612 416.935L442.8 417.05L295.205 417.268L147.609 417.05L73.7977 416.935L0 416.627Z" fill="#263238"/>
<path d="M587.246 407.293H3.14956V416.627H587.246V407.293Z" fill="#C7C7C7"/>
<path d="M44.1079 407.293C45.0223 410.348 45.0223 413.572 44.1079 416.627C43.6158 415.115 43.3798 413.543 43.408 411.966C43.3849 410.385 43.6208 408.81 44.1079 407.293Z" fill="#263238"/>
<path d="M89.7555 407.293C90.2426 408.81 90.4785 410.385 90.4554 411.966C90.4836 413.543 90.2476 415.115 89.7555 416.627C88.8411 413.572 88.8411 410.348 89.7555 407.293Z" fill="#263238"/>
<path d="M135.417 407.293C136.332 410.348 136.332 413.572 135.417 416.627C134.925 415.115 134.689 413.543 134.717 411.966C134.694 410.385 134.93 408.81 135.417 407.293Z" fill="#263238"/>
<path d="M181.065 407.293C181.552 408.81 181.788 410.385 181.765 411.966C181.793 413.543 181.557 415.115 181.065 416.627C180.15 413.572 180.15 410.348 181.065 407.293Z" fill="#263238"/>
<path d="M226.726 407.293C227.641 410.348 227.641 413.572 226.726 416.627C226.234 415.115 225.998 413.543 226.027 411.966C226.003 410.385 226.239 408.81 226.726 407.293Z" fill="#263238"/>
<path d="M272.374 407.293C272.861 408.81 273.097 410.385 273.074 411.966C273.102 413.543 272.866 415.115 272.374 416.627C271.46 413.572 271.46 410.348 272.374 407.293Z" fill="#263238"/>
<path d="M318.036 407.293C318.95 410.348 318.95 413.572 318.036 416.627C317.544 415.115 317.308 413.543 317.336 411.966C317.313 410.385 317.549 408.81 318.036 407.293Z" fill="#263238"/>
<path d="M363.683 407.293C364.17 408.81 364.406 410.385 364.383 411.966C364.411 413.543 364.175 415.115 363.683 416.627C362.769 413.572 362.769 410.348 363.683 407.293Z" fill="#263238"/>
<path d="M409.345 407.293C410.259 410.348 410.259 413.572 409.345 416.627C408.853 415.115 408.617 413.543 408.645 411.966C408.622 410.385 408.858 408.81 409.345 407.293Z" fill="#263238"/>
<path d="M454.993 407.293C455.48 408.81 455.716 410.385 455.693 411.966C455.721 413.543 455.485 415.115 454.993 416.627C454.078 413.572 454.078 410.348 454.993 407.293Z" fill="#263238"/>
<path d="M500.654 407.293C501.569 410.348 501.569 413.572 500.654 416.627C500.162 415.115 499.926 413.543 499.954 411.966C499.931 410.385 500.167 408.81 500.654 407.293Z" fill="#263238"/>
<path d="M546.302 407.293C546.789 408.81 547.025 410.385 547.002 411.966C547.03 413.543 546.794 415.115 546.302 416.627C545.388 413.572 545.388 410.348 546.302 407.293Z" fill="#263238"/>
<path d="M69.0244 407.293C69.0244 407.293 67.8486 402.248 65.4969 401.477C63.1452 400.707 61.7034 402.966 61.7034 402.966C61.7034 402.966 61.1575 398.139 57.812 396.701C54.4664 395.263 51.9748 398.216 51.9748 398.216C51.9748 398.216 49.4131 392.144 44.8358 392.144C40.2584 392.144 37.9627 401.131 37.9627 401.131C37.9627 401.131 35.2611 398.473 32.4895 399.975C29.7179 401.477 29.6899 407.383 29.6899 407.383L69.0244 407.293Z" fill="#37474F"/>
<path d="M459.346 407.293C459.346 407.293 458.17 402.248 455.819 401.477C453.467 400.707 452.039 402.966 452.039 402.966C452.039 402.966 451.479 398.139 448.148 396.701C444.816 395.263 442.31 398.216 442.31 398.216C442.31 398.216 439.749 392.144 435.185 392.144C430.622 392.144 428.298 401.131 428.298 401.131C428.298 401.131 425.611 398.473 422.839 399.975C420.068 401.477 420.04 407.383 420.04 407.383L459.346 407.293Z" fill="#455A64"/>
<path d="M173.002 407.293H131.638C131.638 407.293 133.037 401.952 135.739 401.567C136.577 401.491 137.42 401.656 138.152 402.037C138.884 402.419 139.469 402.999 139.827 403.698C139.827 403.698 139.701 396.239 144.824 394.968C149.947 393.697 154.231 400.283 154.231 400.283C154.231 400.283 157.45 396.522 161.818 396.766C166.185 397.009 167.319 403.185 167.319 403.185C167.319 403.185 171.238 401.041 173.002 407.293Z" fill="#37474F"/>
<path d="M32.2655 407.293H10.4985C10.4985 407.293 10.4985 404.327 12.6822 403.531C13.2642 403.301 13.9119 403.251 14.5278 403.387C15.1438 403.524 15.6947 403.84 16.0978 404.289C16.0978 404.289 16.9656 398.82 20.9551 398.82C24.9445 398.82 26.8623 403.531 26.8623 403.531C27.2007 403.082 27.6753 402.732 28.2275 402.527C28.7797 402.322 29.3854 402.269 29.9698 402.376C32.1815 402.633 32.2655 407.293 32.2655 407.293Z" fill="#455A64"/>
<path d="M190.08 407.293H168.313C168.313 407.293 168.313 404.327 170.496 403.531C171.078 403.301 171.726 403.251 172.342 403.387C172.958 403.524 173.509 403.84 173.912 404.289C173.912 404.289 174.794 398.82 178.783 398.82C182.773 398.82 184.676 403.531 184.676 403.531C185.015 403.082 185.489 402.732 186.042 402.527C186.594 402.322 187.199 402.269 187.784 402.376C189.996 402.633 190.08 407.293 190.08 407.293Z" fill="#455A64"/>
<path d="M548.15 407.293H526.383C526.383 407.293 526.383 404.327 528.566 403.531C529.148 403.301 529.796 403.251 530.412 403.387C531.028 403.524 531.579 403.84 531.982 404.289C531.982 404.289 532.85 398.82 536.839 398.82C540.829 398.82 542.746 403.531 542.746 403.531C543.084 403.08 543.558 402.73 544.111 402.525C544.663 402.319 545.27 402.267 545.854 402.376C548.066 402.633 548.15 407.293 548.15 407.293Z" fill="#455A64"/>
<path d="M579.911 407.293H544.02C544.02 407.293 544.104 402.389 547.632 401.092C548.591 400.723 549.655 400.648 550.664 400.879C551.674 401.111 552.574 401.636 553.231 402.376C553.231 402.376 554.631 393.389 561.252 393.389C567.873 393.389 570.967 401.131 570.967 401.131C571.524 400.388 572.306 399.812 573.216 399.472C574.127 399.132 575.126 399.044 576.09 399.218C579.771 399.616 579.911 407.293 579.911 407.293Z" fill="#37474F"/>
<path d="M418.178 29.2662H394.241V41.7066H418.178V29.2662Z" fill="#263238"/>
<path d="M421.551 25.0809H390.854V33.2205H421.551V25.0809Z" fill="#455A64"/>
<path d="M364.657 41.5615L358.134 47.544L368.438 56.9943L374.961 51.0118L364.657 41.5615Z" fill="#263238"/>
<path d="M363.115 36.6163L352.752 46.1211L359.482 52.2942L369.846 42.7894L363.115 36.6163Z" fill="#455A64"/>
<path d="M437.456 51.0013L443.979 56.9838L454.283 47.5334L447.76 41.5509L437.456 51.0013Z" fill="#263238"/>
<path d="M442.544 42.7954L452.908 52.3002L459.638 46.1271L449.275 36.6223L442.544 42.7954Z" fill="#455A64"/>
<path d="M462.829 105.678C470.168 76.9818 450.753 48.2626 419.464 41.532C388.176 34.8013 356.863 52.608 349.524 81.3042C342.186 110.001 361.601 138.72 392.889 145.45C424.177 152.181 455.491 134.374 462.829 105.678Z" fill="#455A64"/>
<path d="M405.496 143.541C436.156 143.541 461.012 120.744 461.012 92.6237C461.012 64.503 436.156 41.7066 405.496 41.7066C374.835 41.7066 349.979 64.503 349.979 92.6237C349.979 120.744 374.835 143.541 405.496 143.541Z" fill="#263238"/>
<path d="M454.71 99.7694C458.629 75.1929 440.083 52.3562 413.286 48.7621C386.49 45.168 361.59 62.1776 357.672 86.7541C353.753 111.331 372.299 134.167 399.095 137.761C425.892 141.355 450.791 124.346 454.71 99.7694Z" fill="white"/>
<path opacity="0.5" d="M455.245 93.2785H406.251V48.3441C419.245 48.3441 431.707 53.0782 440.895 61.505C450.083 69.9319 455.245 81.3611 455.245 93.2785Z" fill="#4F81E2"/>
<path d="M406.685 51.5665H405.734V58.3837H406.685V51.5665Z" fill="#C7C7C7"/>
<path d="M383.869 56.9081L383.045 57.3446L386.761 63.2485L387.586 62.812L383.869 56.9081Z" fill="#C7C7C7"/>
<path d="M367.04 72.0264L366.564 72.7825L373.001 76.1911L373.477 75.435L367.04 72.0264Z" fill="#C7C7C7"/>
<path d="M368.163 92.842H360.73V93.715H368.163V92.842Z" fill="#C7C7C7"/>
<path d="M374.687 110.78L368.22 114.189L368.696 114.948L375.163 111.54L374.687 110.78Z" fill="#C7C7C7"/>
<path d="M386.766 123.282L383.053 129.187L383.877 129.623L387.59 123.718L386.766 123.282Z" fill="#C7C7C7"/>
<path d="M406.685 128.173H405.734V134.99H406.685V128.173Z" fill="#C7C7C7"/>
<path d="M425.63 123.259L424.806 123.695L428.523 129.599L429.347 129.162L425.63 123.259Z" fill="#C7C7C7"/>
<path d="M439.385 110.315L438.909 111.072L445.346 114.48L445.822 113.724L439.385 110.315Z" fill="#C7C7C7"/>
<path d="M451.689 92.842H444.256V93.715H451.689V92.842Z" fill="#C7C7C7"/>
<path d="M445.348 72.0204L438.911 75.429L439.387 76.1851L445.824 72.7765L445.348 72.0204Z" fill="#C7C7C7"/>
<path d="M428.526 56.9259L424.812 62.8309L425.636 63.2672L429.35 57.3621L428.526 56.9259Z" fill="#C7C7C7"/>
<path d="M406.545 60.7331L408.729 95.9489L403.802 95.8847L405.216 60.7203L406.545 60.7331Z" fill="#4F81E2"/>
<path d="M407.889 93.2785C407.889 93.5863 407.79 93.8871 407.603 94.1429C407.416 94.3986 407.151 94.5977 406.84 94.7149C406.53 94.8321 406.189 94.8621 405.86 94.8011C405.531 94.7401 405.229 94.5909 404.993 94.3723C404.757 94.1538 404.596 93.8758 404.533 93.5736C404.469 93.2714 404.504 92.9587 404.635 92.6751C404.765 92.3915 404.984 92.1497 405.265 91.9806C405.545 91.8115 405.874 91.7225 406.209 91.7251C406.431 91.7251 406.651 91.7653 406.856 91.8435C407.06 91.9218 407.246 92.0364 407.402 92.1808C407.558 92.3252 407.682 92.4966 407.765 92.685C407.849 92.8734 407.891 93.0751 407.889 93.2785Z" fill="#4F81E2"/>
<path d="M441.751 93.8049L403.354 95.7948L403.424 91.2757L441.765 92.5724L441.751 93.8049Z" fill="#263238"/>
<path d="M407.889 93.2785C407.889 93.5863 407.79 93.8871 407.603 94.1429C407.416 94.3986 407.151 94.5977 406.84 94.7149C406.53 94.8321 406.189 94.8621 405.86 94.8011C405.531 94.7401 405.229 94.5909 404.993 94.3723C404.757 94.1538 404.596 93.8758 404.533 93.5736C404.469 93.2714 404.504 92.9587 404.635 92.6751C404.765 92.3915 404.984 92.1497 405.265 91.9806C405.545 91.8115 405.874 91.7225 406.209 91.7251C406.431 91.7251 406.651 91.7653 406.856 91.8435C407.06 91.9218 407.246 92.0364 407.402 92.1808C407.558 92.3252 407.682 92.4966 407.765 92.685C407.849 92.8734 407.891 93.0751 407.889 93.2785Z" fill="#4F81E2"/>
<path d="M206.835 189.939C214.044 215.166 223.437 231.638 229.736 237.338C244.826 250.998 277.329 254.028 295.611 260.987C301.56 263.259 318.008 228.647 311.919 225.617C307.425 223.37 255.241 217.31 250.803 216.065C248.521 215.423 231.206 194.74 221.407 183.109C205.617 164.467 202.888 176.163 206.835 189.939Z" fill="#F7A9A0"/>
<path d="M324.181 265.84C321.381 265.775 321.283 267.123 325.189 270.089C329.094 273.055 347.278 281.644 343.456 287.228C339.635 292.813 314.172 280.283 308.083 274.916C301.994 269.55 294.169 258.92 294.169 258.92C299.67 260.447 313.402 262.977 324.181 265.84Z" fill="#F7A9A0"/>
<path d="M307.523 224.526C334.623 228.377 345.402 233.243 357.272 245.953C358.627 247.326 359.445 249.074 359.596 250.921C365.027 256.519 363.795 260.563 363.795 260.563C367.099 267.2 365.195 271.167 365.195 271.167C365.195 271.167 371.494 277.805 367.743 281.965C363.543 286.638 355.537 276.393 347.376 273.234C328.66 265.981 299.782 260.486 294.183 258.894L307.523 224.526Z" fill="#F7A9A0"/>
<path d="M333.532 253.027C339.039 255.083 344.385 257.485 349.531 260.216C354.957 263.521 360.104 267.194 364.929 271.206C364.962 271.223 365 271.23 365.038 271.225C365.075 271.22 365.109 271.203 365.135 271.178C365.161 271.153 365.177 271.12 365.18 271.086C365.183 271.051 365.174 271.017 365.153 270.988C356.662 262.395 345.763 256.102 333.644 252.796C333.364 252.719 333.252 252.911 333.532 253.027Z" fill="#263238"/>
<path d="M336.653 242.024C341.846 244.464 350.917 248.816 363.613 260.704C363.613 260.704 363.739 260.704 363.697 260.704C356.807 252.248 347.486 245.718 336.779 241.845C336.443 241.665 336.317 241.857 336.653 242.024Z" fill="#263238"/>
<path d="M338.459 236.144C347.096 240.612 351.925 244.425 359.526 250.947C359.526 250.947 359.638 250.947 359.596 250.883C351.827 242.641 347.992 240.458 338.599 235.849C338.263 235.695 338.123 235.965 338.459 236.144Z" fill="#263238"/>
<path d="M237.575 201.378L212.616 222.831C212.616 222.831 202.538 189.554 202.608 179.026C202.608 167.151 209.271 169.77 218.006 177.742C226.74 185.715 237.575 201.378 237.575 201.378Z" fill="#4F81E2"/>
<path opacity="0.1" d="M237.575 201.378L212.616 222.831C212.616 222.831 202.538 189.554 202.608 179.026C202.608 167.151 209.271 169.77 218.006 177.742C226.74 185.715 237.575 201.378 237.575 201.378Z" fill="black"/>
<path d="M232.466 197.989C228.882 200.325 219.209 208.721 217.586 210.095C216.732 210.827 213.484 213.844 212.63 214.563C212.518 214.653 212.63 214.794 212.798 214.704C214.436 213.343 216.228 212.136 217.866 210.763C219.503 209.389 229.694 201.185 232.578 198.104C232.648 198.04 232.55 197.937 232.466 197.989Z" fill="#263238"/>
<path d="M369.843 458.814C366.455 459.828 268.917 456.246 265.263 454.076C264.815 453.832 263.079 436.629 263.079 436.629L274.362 370.524L338.403 371.307L326.043 427.796C326.043 427.796 340.153 433.753 351.785 438.953C358.952 442.137 365.181 445.051 366.609 446.116C370.36 448.864 373.244 457.812 369.843 458.814Z" fill="#F7A9A0"/>
<path d="M369.857 458.814C366.469 459.828 268.903 456.246 265.263 454.089C264.829 453.832 263.065 436.629 263.065 436.629L266.551 416.267L327.988 418.835L326.001 427.745C326.001 427.745 340.097 433.702 351.743 438.888C358.91 442.072 365.139 444.987 366.567 446.052C370.346 448.877 373.23 457.825 369.857 458.814Z" fill="#EBEBEB"/>
<path d="M369.801 458.903C366.343 459.892 268.161 457.799 264.479 455.54C263.079 454.705 262.561 441.559 262.449 425.665V425.177L325.819 425.883V426.859C325.819 426.859 363.011 443.087 366.777 445.962C370.542 448.838 373.258 457.953 369.801 458.903Z" fill="#C7C7C7"/>
<path d="M364.201 459.16C342.714 459.366 267.615 457.517 264.479 455.553C263.079 454.718 262.561 441.572 262.449 425.678V425.19L302.134 425.626L364.201 459.16Z" fill="#A6A6A6"/>
<path d="M368.779 455.411C352.233 454.68 285.434 453.178 269.029 453.614C268.889 453.614 268.889 453.704 269.029 453.717C285.406 454.757 352.205 455.758 368.765 455.655C369.115 455.655 369.129 455.424 368.779 455.411Z" fill="#263238"/>
<path d="M331.082 427.167C324.601 425.883 316.608 426.653 311.485 430.813C311.289 430.967 311.485 431.224 311.751 431.16C318.022 429.453 324.475 428.368 330.998 427.924C331.098 427.92 331.193 427.882 331.266 427.819C331.339 427.755 331.384 427.67 331.394 427.579C331.404 427.487 331.379 427.395 331.321 427.32C331.264 427.244 331.179 427.19 331.082 427.167Z" fill="#263238"/>
<path d="M335.715 429.863C329.234 428.579 321.241 429.362 316.118 433.509C315.922 433.663 316.118 433.92 316.384 433.869C322.67 432.168 329.137 431.092 335.673 430.659C335.788 430.664 335.901 430.627 335.986 430.556C336.072 430.485 336.123 430.386 336.128 430.28C336.134 430.175 336.093 430.071 336.016 429.993C335.939 429.915 335.83 429.868 335.715 429.863Z" fill="#263238"/>
<path d="M340.349 432.559C333.868 431.275 325.875 432.058 320.751 436.205C320.555 436.372 320.751 436.616 321.017 436.565C327.288 434.855 333.741 433.766 340.265 433.317C340.365 433.312 340.46 433.274 340.533 433.211C340.605 433.148 340.651 433.062 340.661 432.971C340.671 432.879 340.645 432.787 340.588 432.712C340.531 432.636 340.446 432.582 340.349 432.559Z" fill="#263238"/>
<path d="M331.418 419.246L259.93 416.267C259.93 416.267 284.636 324.254 282.005 321.263C279.205 318.053 175.704 341.804 155.014 318.259C133.821 294.135 144.446 259.407 144.446 259.407H215.038C215.038 259.407 213.638 268.099 214.59 272.246C214.59 272.246 313.976 258.303 335.589 268.805C339.789 270.872 355.187 282.478 355.439 293.481C356.796 342.074 331.418 419.246 331.418 419.246Z" fill="#455A64"/>
<path d="M332.132 407.37C323.649 406.394 315.152 405.804 306.627 405.213C298.103 404.623 289.578 404.16 281.053 403.865C276.238 403.685 271.422 403.724 266.607 403.57C266.582 403.578 266.561 403.593 266.546 403.612C266.53 403.632 266.522 403.655 266.522 403.679C266.522 403.703 266.53 403.726 266.546 403.746C266.561 403.766 266.582 403.78 266.607 403.788C270.89 404.071 275.16 404.571 279.443 404.879L292.125 405.727C300.65 406.24 309.175 406.677 317.7 407.152C322.501 407.421 327.302 407.563 332.118 407.665C332.153 407.657 332.184 407.639 332.207 407.613C332.23 407.588 332.244 407.556 332.245 407.523C332.247 407.489 332.237 407.456 332.216 407.429C332.196 407.402 332.166 407.381 332.132 407.37Z" fill="#263238"/>
<path d="M293.021 314.728C279.289 315.139 265.627 316.23 251.965 317.463C238.303 318.695 224.557 320.03 210.783 320.852C203.952 321.25 197.093 321.507 190.234 321.545C184.536 321.77 178.834 321.225 173.31 319.928C167.825 318.457 163.137 315.161 160.166 310.684C157.178 306.147 155.222 301.103 154.413 295.856C152.607 285.238 154.413 274.39 156.526 263.914C156.792 262.63 157.058 261.346 157.31 259.96C157.31 259.844 157.128 259.793 157.086 259.96C154.287 270.526 151.669 281.4 152.509 292.312C152.852 297.667 154.276 302.917 156.708 307.795C158.902 312.535 162.675 316.517 167.487 319.17C172.4 321.738 178.209 322.495 183.85 322.752C190.43 323.06 197.093 322.752 203.672 322.483C217.754 321.853 231.78 320.518 245.778 319.183C259.776 317.848 273.704 316.538 287.772 315.896C289.326 315.819 290.88 315.768 292.433 315.717C290.306 327.271 272.29 396.059 271.282 401.503C271.184 402.042 271.744 402.209 271.898 401.657C274.978 390.937 292.461 322.059 293.623 315.332C293.642 315.253 293.64 315.172 293.617 315.095C293.594 315.017 293.552 314.946 293.493 314.887C293.434 314.828 293.36 314.783 293.278 314.755C293.196 314.727 293.108 314.718 293.021 314.728Z" fill="#263238"/>
<path d="M348.132 461.497H195.357V476.993H348.132V461.497Z" fill="#4F81E2"/>
<path d="M61.1015 325.551H69.7663L125.758 384.299H117.094L61.1015 325.551Z" fill="#A6A6A6"/>
<path d="M170.23 320.891H49.8191V325.538H170.23V320.891Z" fill="#A6A6A6"/>
<path d="M93.7729 325.551H102.438L158.43 384.299H149.765L93.7729 325.551Z" fill="#A6A6A6"/>
<path d="M149.485 433.856C192.991 433.856 218.202 461.574 218.202 494.196C218.202 526.819 194.853 553.908 152.425 553.908C105.475 553.908 83.0504 519.655 83.0504 493.901C83.0504 468.147 105.447 433.856 149.485 433.856Z" fill="#37474F"/>
<path d="M142.794 433.856C184.158 433.856 208.109 461.574 208.109 494.196C208.109 526.819 185.922 553.908 145.566 553.908C100.926 553.908 79.6349 519.603 79.6349 493.85C79.6349 468.096 100.926 433.856 142.794 433.856Z" fill="#263238"/>
<path d="M143.214 457.286C168.411 457.286 183.011 474.181 183.011 494.055C183.011 513.929 169.488 530.426 144.908 530.426C117.696 530.426 104.705 509.551 104.705 493.85C104.705 478.148 117.696 457.286 143.214 457.286Z" fill="#C7C7C7"/>
<path d="M272.64 360.715V355.464L126.234 359.791V371.602C126.234 371.602 83.8343 414.547 79.5509 459.186L226.363 462.036L249.949 461.497H278.911V434.51C278.911 434.51 257.018 419.875 260.854 389.974C262.128 380.05 272.64 360.715 272.64 360.715Z" fill="#4F81E2"/>
<path d="M212.686 455.784C211.161 458.351 188.89 462.036 146.672 463.076C108.667 464.013 80.2788 463.243 78.0811 460.996C75.8834 458.749 81.4827 419.015 107.211 397.497C132.939 375.98 169.362 372.886 193.383 385.725C214.506 396.984 230.268 425.601 212.686 455.784Z" fill="#4F81E2"/>
<path opacity="0.1" d="M219.853 418.167C217.596 408.758 212.39 400.159 204.876 393.428C197.342 386.505 187.935 381.546 177.621 379.061C166.116 376.428 154.067 376.547 142.626 379.408C136.901 380.785 131.364 382.753 126.122 385.275C120.588 388.003 115.373 391.242 110.557 394.943C109.269 395.918 107.967 396.894 106.693 397.895C106.581 397.972 106.693 398.114 106.861 398.037C111.707 394.129 116.952 390.659 122.525 387.676C127.61 385.012 133.005 382.881 138.609 381.321C149.718 378.134 161.517 377.525 172.946 379.549C183.276 381.453 192.849 385.89 200.648 392.388C208.163 398.593 213.69 406.56 216.634 415.433C220.133 426.243 218.986 438.144 215.5 448.813C215.038 450.25 214.534 451.663 214.016 453.075C214.016 453.229 214.212 453.28 214.268 453.139C218.972 442.06 222.485 430.12 219.853 418.167Z" fill="black"/>
<path d="M118.088 467.171C92.5971 467.171 79.103 466.452 72.2579 463.962L75.4355 456.631C83.4424 459.545 108.513 459.494 148.855 459.07C178.657 458.749 200.648 456.169 214.366 451.367L217.432 458.737C202.594 463.872 180.197 466.594 148.953 466.927C137.097 467.082 126.878 467.171 118.088 467.171Z" fill="#DBDBDB"/>
<path d="M275.048 358.918C275.048 358.918 276.028 329.544 275.048 328.388C274.068 327.233 125.856 324.781 121.419 325.14C116.982 325.5 116.534 359.804 116.87 361.409C117.206 363.013 271.184 359.226 275.048 358.918Z" fill="#37474F"/>
<path d="M288.934 328.979C288.5 328.517 269.714 328.029 268.679 328.003C267.643 327.977 267.279 359.29 267.839 359.265C268.399 359.239 288.248 359.496 288.906 358.828C289.564 358.161 289.872 329.98 288.934 328.979Z" fill="#455A64"/>
<path d="M185.124 325.166C184.593 325.673 184.246 326.319 184.13 327.014C183.955 327.747 183.828 328.489 183.752 329.236C183.57 330.725 183.472 332.24 183.388 333.742C183.248 336.772 183.165 339.814 183.109 342.87C183.053 345.925 182.969 348.955 183.109 351.972C183.121 353.467 183.233 354.959 183.444 356.44C183.529 357.156 183.712 357.859 183.99 358.533C184.093 358.835 184.274 359.109 184.518 359.333C184.761 359.557 185.061 359.723 185.39 359.817C185.021 359.807 184.662 359.7 184.357 359.509C184.052 359.318 183.813 359.05 183.668 358.738C183.277 358.067 182.971 357.356 182.759 356.62C182.362 355.115 182.105 353.581 181.989 352.037C181.73 348.961 181.646 345.876 181.737 342.793C181.821 339.725 181.961 336.643 182.339 333.575C182.52 332.04 182.787 330.515 183.137 329.004C183.332 328.257 183.57 327.52 183.85 326.796C184.074 326.167 184.466 325.384 185.124 325.166Z" fill="#455A64"/>
<path d="M55.3903 320.826H195.357V241.023H55.3903V320.826Z" fill="#37474F"/>
<path d="M55.3903 320.826H156.512V241.023H55.3903L55.3903 320.826Z" fill="#263238"/>
<path d="M111.397 241.01H100.52V320.814H111.397V241.01Z" fill="#4F81E2"/>
<path d="M156.526 233.628H52.5487V241.01H156.526V233.628Z" fill="#37474F"/>
<path d="M198.492 233.628H156.512V241.01H198.492V233.628Z" fill="#263238"/>
<path d="M112.306 233.628H99.5961V241.01H112.306V233.628Z" fill="#4F81E2"/>
<path d="M70.2142 233.962H172.386V175.701H70.2142L70.2142 233.962Z" fill="#37474F"/>
<path d="M70.2142 233.962H144.026V175.701H70.2142L70.2142 233.962Z" fill="#263238"/>
<path d="M111.089 175.714H103.152V233.975H111.089V175.714Z" fill="#4F81E2"/>
<path d="M144.026 170.322H68.1285V175.714H144.026V170.322Z" fill="#37474F"/>
<path d="M174.668 170.322H144.026V175.714H174.668V170.322Z" fill="#263238"/>
<path d="M111.76 170.322H102.48V175.714H111.76V170.322Z" fill="#4F81E2"/>
<path d="M469.033 433.368C512.553 433.368 537.749 461.086 537.749 493.708C537.749 526.331 514.4 553.381 471.958 553.381C424.995 553.381 402.57 519.128 402.57 493.387C402.57 467.646 424.995 433.368 469.033 433.368Z" fill="#37474F"/>
<path d="M462.342 433.368C503.706 433.368 527.671 461.086 527.671 493.708C527.671 526.331 505.47 553.381 465.127 553.381C420.488 553.381 399.168 519.128 399.168 493.387C399.168 467.646 420.487 433.368 462.342 433.368Z" fill="#263238"/>
<path d="M462.762 456.798C487.958 456.798 502.572 473.693 502.572 493.567C502.572 513.441 489.05 529.938 464.455 529.938C437.257 529.938 424.267 509.063 424.267 493.375C424.267 477.686 437.257 456.798 462.762 456.798Z" fill="#C7C7C7"/>
<path d="M398.637 297.088H381.517L369.787 281.297H389.846L398.637 297.088Z" fill="#4F81E2"/>
<path d="M369.787 281.297L376.66 290.541L381.517 297.088H398.637L394.003 288.769L389.832 281.297H369.787Z" fill="#4F81E2"/>
<path opacity="0.1" d="M369.787 281.297L376.66 290.541L394.003 288.769L389.832 281.297H369.787Z" fill="black"/>
<path d="M440.239 414.932L423.567 418.45L408.281 405.457L427.823 401.349L440.239 414.932Z" fill="#4F81E2"/>
<path d="M408.281 405.457L417.226 413.07L423.553 418.45L440.253 414.932L433.702 407.781L427.823 401.349L408.281 405.457Z" fill="#4F81E2"/>
<path opacity="0.1" d="M408.281 405.457L417.226 413.07L433.702 407.781L427.823 401.349L408.281 405.457Z" fill="black"/>
<path d="M533.97 441.071L517.774 448.877C517.774 448.877 470.867 441.071 440.785 446.977C410.703 452.882 402.584 467.621 402.584 467.621H387.382C387.382 467.621 400.428 425.113 422.559 409.681C444.69 394.249 480.259 397.703 499.926 407.421C519.594 417.14 533.97 441.071 533.97 441.071Z" fill="#4F81E2"/>
<path opacity="0.1" d="M516.066 445.937C512.929 442.932 509.53 440.167 505.904 437.669C502.31 435.107 498.51 432.798 494.537 430.762C486.835 426.836 478.388 424.292 469.649 423.264C452.543 421.338 434.654 425.909 422.055 437.964C414.972 444.794 409.933 453.178 405.146 461.638C405.076 461.766 405.272 461.869 405.342 461.741C409.398 454.302 414.52 447.393 420.571 441.199C426.403 435.36 433.661 430.872 441.751 428.104C457.89 422.674 475.346 424.753 490.856 431.314C495.297 433.16 499.583 435.305 503.678 437.733C507.866 440.32 511.907 443.101 515.786 446.065C515.811 446.086 515.843 446.099 515.876 446.103C515.91 446.108 515.944 446.102 515.974 446.089C516.004 446.075 516.029 446.053 516.046 446.026C516.062 445.999 516.069 445.968 516.066 445.937Z" fill="black"/>
<path d="M338.081 288.589C337.829 289.128 304.024 294.829 304.024 294.829C304.024 294.829 298.424 291.362 301.882 286.972L335.799 280.257C337.103 281.238 338.029 282.578 338.44 284.078C338.85 285.578 338.725 287.159 338.081 288.589Z" fill="#263238"/>
<path d="M409.037 248.508V285.29C409.037 285.29 387.382 283.557 381.615 283.377C375.848 283.197 350.217 286.24 350.217 286.24L348.23 277.997C348.23 277.997 367.995 271.668 376.394 266.725C384.792 261.783 394.465 252.334 399.658 250.241C402.598 249.009 405.807 248.416 409.037 248.508Z" fill="#4F81E2"/>
<path d="M350.301 276.958C351.589 278.172 352.56 279.638 353.142 281.245C353.724 282.853 353.901 284.56 353.661 286.24C353.661 286.24 337.521 288.949 337.325 288.949C337.459 287.207 336.999 285.47 336.008 283.98C335.017 282.489 333.545 281.318 331.796 280.629L350.301 276.958Z" fill="#DBDBDB"/>
<path d="M409.247 285.29C415.107 285.29 419.858 277.059 419.858 266.905C419.858 256.752 415.107 248.521 409.247 248.521C403.387 248.521 398.637 256.752 398.637 266.905C398.637 277.059 403.387 285.29 409.247 285.29Z" fill="#DBDBDB"/>
<path d="M409.905 283.313C414.922 283.313 418.99 275.967 418.99 266.905C418.99 257.843 414.922 250.498 409.905 250.498C404.888 250.498 400.82 257.843 400.82 266.905C400.82 275.967 404.888 283.313 409.905 283.313Z" fill="white"/>
<path d="M412.663 297.14C416.19 301.877 430.314 366.3 433.086 369.535C435.857 372.771 441.163 373.002 441.163 373.002L450.499 394.288C450.499 394.288 427.305 401.002 414.426 410.708C397.783 423.251 382.399 464.835 382.399 464.835C379.879 466.452 348.607 478.251 340.027 478.713C340.027 478.713 379.907 438.555 383.155 382.977C384.414 361.447 369.969 331.123 369.031 316.102C367.995 299.977 373.314 297.14 382.651 297.14H412.663Z" fill="#4F81E2"/>
<path d="M338.109 483.296L331.866 477.879C366.861 443.908 379.767 390.385 378.745 375.775C378.213 368.29 375.596 359.919 372.81 351.048C369.843 341.586 366.483 330.866 365.055 319.222C363.725 308.412 365.055 301.428 369.073 297.255C373.09 293.083 378.605 293.095 382.273 293.108H415.588V300.991H382.259C379.053 300.991 376.87 301.094 375.484 302.519C374.098 303.944 372.292 307.654 373.608 318.349C375.008 329.325 378.073 339.262 381.083 348.865C383.995 358.16 386.682 366.929 387.326 375.261C388.418 390.86 374.994 447.644 338.109 483.296Z" fill="#DBDBDB"/>
<path d="M433.254 387.111C435.213 393.736 441.387 397.947 447.042 396.534C452.697 395.122 455.707 388.613 453.733 382.001C451.759 375.39 445.586 371.153 439.931 372.565C434.276 373.977 431.28 380.499 433.254 387.111Z" fill="#DBDBDB"/>
<path d="M435.353 386.585C437.103 392.49 442.45 396.291 447.294 395.084C452.137 393.877 454.629 388.113 452.893 382.245C451.157 376.378 445.796 372.54 440.967 373.746C436.137 374.953 433.604 380.679 435.353 386.585Z" fill="white"/>
<path opacity="0.1" d="M408.491 386.046C406.937 379.382 405.258 372.745 403.802 366.069C402.346 359.393 401.002 352.704 399.868 345.99C398.763 339.737 397.573 333.421 397.139 327.092C396.705 320.48 397.139 313.804 400.638 307.834C400.646 307.822 400.65 307.809 400.652 307.796C400.654 307.782 400.653 307.768 400.649 307.755C400.645 307.742 400.639 307.73 400.63 307.719C400.62 307.708 400.609 307.699 400.596 307.693C400.583 307.686 400.569 307.682 400.555 307.68C400.54 307.678 400.525 307.679 400.511 307.683C400.496 307.686 400.483 307.692 400.471 307.701C400.459 307.709 400.45 307.719 400.442 307.731C396.845 312.546 395.669 318.336 395.473 324.075C395.491 330.401 396.1 336.715 397.293 342.947C399.335 356.631 402.138 370.21 405.692 383.632C407.721 391.219 410.339 398.678 413.139 406.048C413.139 406.072 413.149 406.094 413.167 406.111C413.186 406.128 413.211 406.138 413.237 406.138C413.263 406.138 413.287 406.128 413.306 406.111C413.324 406.094 413.335 406.072 413.335 406.048C411.664 399.346 410.05 392.679 408.491 386.046Z" fill="black"/>
<path opacity="0.1" d="M278.911 434.51V461.471H253.827V441.058C253.827 441.058 239.829 434.575 237.029 410.991C234.509 389.627 253.099 361.113 256.626 355.939L272.598 355.464V360.715C272.598 360.715 262.086 380.05 260.812 389.974C257.018 419.875 278.911 434.51 278.911 434.51Z" fill="black"/>
<path d="M342 467.775C338.613 468.776 241.06 465.207 237.407 463.037C236.973 462.794 235.237 445.577 235.237 445.577L246.52 379.472L310.561 380.255L298.201 436.744C298.201 436.744 312.297 442.689 323.943 447.888C331.11 451.085 337.339 453.999 338.767 455.052C342.504 457.825 345.388 466.773 342 467.775Z" fill="#F7A9A0"/>
<path d="M342.014 467.775C338.613 468.776 241.06 465.207 237.421 463.037C236.973 462.793 235.223 445.59 235.223 445.59L238.709 425.215L300.146 427.783L298.201 436.667C298.201 436.667 312.297 442.624 323.943 447.811C331.096 451.008 337.339 453.922 338.767 454.975C342.504 457.838 345.388 466.773 342.014 467.775Z" fill="#EBEBEB"/>
<path d="M341.944 467.89C338.501 468.879 240.305 466.773 236.623 464.514C235.223 463.679 234.719 450.546 234.607 434.652V434.151L297.963 434.857V435.846C297.963 435.846 335.155 452.061 338.921 454.936C342.686 457.812 345.402 466.902 341.944 467.89Z" fill="#C7C7C7"/>
<path d="M340.923 464.36C324.391 463.641 257.592 462.139 241.186 462.575C241.046 462.575 241.046 462.665 241.186 462.665C257.564 463.718 324.363 464.719 340.923 464.616C341.273 464.604 341.273 464.373 340.923 464.36Z" fill="#263238"/>
<path d="M303.24 436.115C296.759 434.831 288.766 435.615 283.643 439.761C283.433 439.928 283.643 440.172 283.909 440.121C290.179 438.41 296.632 437.321 303.156 436.873C303.256 436.868 303.351 436.831 303.424 436.767C303.496 436.704 303.542 436.619 303.552 436.527C303.562 436.436 303.536 436.344 303.479 436.268C303.422 436.193 303.337 436.138 303.24 436.115Z" fill="#263238"/>
<path d="M307.873 438.824C301.392 437.54 293.399 438.311 288.276 442.457C288.08 442.624 288.276 442.881 288.542 442.817C294.817 441.105 301.275 440.016 307.803 439.569C307.857 439.573 307.91 439.568 307.961 439.553C308.012 439.538 308.06 439.514 308.1 439.482C308.141 439.451 308.175 439.412 308.2 439.369C308.224 439.325 308.24 439.277 308.244 439.229C308.249 439.18 308.243 439.131 308.227 439.084C308.21 439.037 308.184 438.994 308.15 438.956C308.116 438.918 308.073 438.887 308.026 438.865C307.978 438.842 307.926 438.828 307.873 438.824Z" fill="#263238"/>
<path d="M312.507 441.52C306.025 440.236 298.033 441.007 292.909 445.166C292.713 445.32 292.909 445.577 293.175 445.513C299.448 443.813 305.9 442.728 312.423 442.278C312.523 442.273 312.618 442.236 312.69 442.172C312.763 442.109 312.809 442.024 312.819 441.932C312.829 441.841 312.803 441.749 312.746 441.673C312.689 441.598 312.604 441.543 312.507 441.52Z" fill="#263238"/>
<path d="M303.604 428.207L232.116 425.215C232.116 425.215 256.836 333.203 254.205 330.211C251.405 326.989 157.142 350.753 136.439 327.207C115.246 303.084 136.439 262.707 136.439 262.707H208.907C208.907 262.707 208.907 270.102 203.98 281.169C203.98 281.169 286.148 267.213 307.803 277.715C312.073 279.795 327.4 291.401 327.652 302.403C328.912 351.061 303.604 428.207 303.604 428.207Z" fill="#455A64"/>
<path d="M304.29 416.331C295.807 415.356 287.296 414.752 278.771 414.174C270.246 413.597 261.736 413.122 253.197 412.814C248.395 412.647 243.58 412.685 238.765 412.518C238.731 412.518 238.699 412.53 238.676 412.552C238.652 412.574 238.639 412.603 238.639 412.634C238.639 412.664 238.652 412.694 238.676 412.716C238.699 412.737 238.731 412.749 238.765 412.749C243.048 413.032 247.318 413.52 251.601 413.828C255.884 414.136 260 414.418 264.283 414.675C272.794 415.202 281.319 415.625 289.844 416.113C294.659 416.383 299.46 416.524 304.276 416.627C304.311 416.619 304.342 416.6 304.365 416.575C304.388 416.549 304.402 416.517 304.403 416.484C304.405 416.451 304.394 416.418 304.374 416.39C304.354 416.363 304.324 416.342 304.29 416.331Z" fill="#263238"/>
<path d="M166.745 268.266C166.65 268.537 166.528 268.799 166.381 269.049C166.365 269.067 166.356 269.09 166.356 269.113C166.356 269.137 166.365 269.159 166.381 269.177C165.541 271.578 165.191 274.12 164.379 276.534C163.608 279.096 161.898 281.336 159.536 282.876C154.58 286.034 148.631 287.459 142.864 288.769C142.829 288.778 142.799 288.798 142.777 288.824C142.756 288.851 142.744 288.883 142.744 288.917C142.744 288.95 142.756 288.982 142.777 289.009C142.799 289.035 142.829 289.055 142.864 289.064C146.189 289.081 149.495 288.618 152.663 287.69C155.639 286.935 158.445 285.7 160.95 284.044C163.302 282.411 164.981 280.094 165.709 277.471C166.061 276.077 166.337 274.667 166.535 273.247C166.859 271.615 167.051 269.963 167.109 268.304C167.088 268.279 167.062 268.258 167.033 268.243C167.003 268.227 166.97 268.217 166.936 268.213C166.902 268.21 166.867 268.212 166.834 268.222C166.802 268.231 166.771 268.246 166.745 268.266Z" fill="#263238"/>
<path d="M215.64 277.882C211.698 278.925 207.859 280.269 204.162 281.9L203.98 281.977C204.056 281.768 204.112 281.553 204.148 281.335C204.148 281.079 204.232 280.835 204.288 280.578C204.344 280.321 204.288 280.052 204.372 279.782V279.371C204.848 279.343 205.313 279.225 205.737 279.024C206.161 278.822 206.535 278.543 206.835 278.203C207.608 277.218 208.13 276.086 208.361 274.891C208.795 273.401 209.201 271.886 209.551 270.371C209.901 268.857 210.279 266.995 210.573 265.236C210.928 263.572 211.139 261.885 211.203 260.191C211.203 260.129 211.176 260.071 211.129 260.027C211.082 259.984 211.017 259.96 210.951 259.96C210.884 259.96 210.82 259.984 210.772 260.027C210.725 260.071 210.699 260.129 210.699 260.191C210.265 261.744 210.069 263.349 209.747 264.915C209.425 266.481 209.061 268.061 208.669 269.627C208.277 271.193 207.857 272.759 207.381 274.3C206.905 275.841 206.541 277.677 204.805 278.152C201.222 279.089 202.832 271.732 202.986 270.269C203.35 266.931 203.574 263.516 204.218 260.203C204.218 260.075 204.008 260.011 203.98 260.203C203.196 263.246 202.314 266.237 201.726 269.319C201.432 270.834 201.222 272.361 201.04 273.876C200.749 275.189 200.866 276.55 201.376 277.805C201.598 278.229 201.93 278.597 202.342 278.876C202.754 279.156 203.235 279.339 203.742 279.41L203.63 279.756C203.546 280 203.462 280.244 203.392 280.488C203.322 280.732 203.266 280.989 203.21 281.233C203.086 281.522 203.043 281.836 203.084 282.144C203.115 282.231 203.18 282.304 203.266 282.35C201.74 282.953 200.2 283.556 198.688 284.211C196.788 284.896 194.948 285.716 193.187 286.663C192.977 286.753 193.187 287.01 193.341 286.972C195.312 286.464 197.24 285.825 199.108 285.059C201.026 284.391 202.916 283.672 204.819 282.94C208.591 281.67 212.238 280.111 215.724 278.28C215.782 278.27 215.832 278.239 215.865 278.194C215.898 278.15 215.91 278.095 215.899 278.042C215.888 277.99 215.854 277.943 215.806 277.913C215.757 277.883 215.698 277.872 215.64 277.882Z" fill="#263238"/>
<path d="M325.525 294.045C323.045 287.36 318.027 281.714 311.387 278.139C304.57 274.685 296.619 273.761 288.99 273.543C280.115 273.299 271.184 273.722 262.324 274.236C252.889 274.775 243.454 275.597 234.075 276.803C224.697 278.01 215.486 279.487 206.261 281.31C204.05 281.746 201.852 282.285 199.654 282.85C199.486 282.85 199.514 283.184 199.654 283.159C208.823 281.977 217.95 280.591 227.118 279.435C236.287 278.28 245.554 277.368 254.821 276.726C264.087 276.085 273.256 275.725 282.481 275.597C290.04 275.494 297.879 275.597 305.06 277.831C308.61 278.871 311.899 280.552 314.732 282.773C317.515 285.056 319.796 287.805 321.451 290.874C325.231 297.692 325.581 305.51 325.959 313.059C327.051 335.462 309.483 406.651 306.361 418.09C306.353 418.189 306.384 418.288 306.447 418.369C306.511 418.45 306.603 418.508 306.708 418.532C306.814 418.557 306.925 418.546 307.023 418.503C307.121 418.46 307.199 418.386 307.243 418.296C310.757 405.38 328.24 338.133 328.24 317.925C328.254 309.862 328.576 301.646 325.525 294.045Z" fill="#263238"/>
<path d="M264.703 322.457C251.895 322.868 239.157 323.959 226.418 325.191C213.68 326.424 200.844 327.759 188.022 328.581C181.639 328.979 175.242 329.236 168.844 329.274C163.526 329.503 158.201 328.957 153.069 327.656C147.856 326.112 143.475 322.814 140.806 318.426C138.006 313.827 136.186 308.782 135.445 303.559C133.765 292.941 135.445 282.093 137.419 271.617C137.671 270.333 137.909 269.049 138.161 267.675C138.161 267.547 137.979 267.496 137.951 267.675C135.277 278.241 132.884 289.116 133.751 300.028C134.069 305.361 135.391 310.604 137.657 315.524C139.632 320.181 143.147 324.153 147.707 326.886C152.404 329.191 157.639 330.42 162.965 330.468C169.13 330.68 175.303 330.59 181.457 330.198C194.587 329.569 207.661 328.234 220.721 326.899C233.781 325.564 246.758 324.254 259.832 323.612C261.232 323.548 262.729 323.484 264.171 323.445C262.198 334.936 245.4 403.775 244.462 409.219C244.364 409.758 244.896 409.925 245.036 409.386C247.836 398.653 264.213 329.788 265.291 323.047C265.31 322.971 265.308 322.891 265.286 322.815C265.264 322.74 265.223 322.67 265.165 322.612C265.107 322.554 265.035 322.509 264.955 322.482C264.874 322.455 264.788 322.447 264.703 322.457Z" fill="#263238"/>
<path d="M132.282 270.911C132.478 271.167 228.238 277.92 229.246 277.099C230.646 275.931 221.169 185.946 212.616 172.748C210.783 169.937 203.77 168.46 197.625 168.512C196.024 168.504 194.427 168.629 192.851 168.884H192.697C191.425 169.082 190.199 169.477 189.072 170.052C170.678 180.58 151.053 222.15 146.112 234.732C137.923 255.479 131.568 269.986 132.282 270.911Z" fill="#4F81E2"/>
<path d="M208.207 184.226C203.448 184.226 195.413 177.177 193.817 170.566C193.705 170.104 195.679 166.162 197.806 161.258C199.094 158.267 200.452 154.929 201.446 151.796C201.642 151.141 221.365 162.285 221.365 162.285C218.901 165.88 216.927 169.739 215.486 173.775C215.356 174.195 215.267 174.625 215.22 175.059C215.226 175.132 215.226 175.205 215.22 175.277C214.842 177.884 213.288 184.29 208.207 184.226Z" fill="#F7A9A0"/>
<path d="M215.22 175.098C215.226 175.17 215.226 175.243 215.22 175.316C214.465 175.215 213.72 175.056 212.994 174.841C200.396 171.22 201.712 155.84 202.244 152.001C205.897 153.516 221.407 162.272 221.407 162.272C218.945 165.871 216.967 169.729 215.514 173.762C215.378 174.2 215.28 174.646 215.22 175.098Z" fill="#263238"/>
<path d="M203.196 127.737C199.738 134.644 200.802 155.981 205.687 161.271C212.784 168.974 225.943 171.298 233.487 163.158C240.794 155.262 238.877 127.519 233.278 122.524C225.005 115.181 208.319 117.556 203.196 127.737Z" fill="#F7A9A0"/>
<path d="M223.465 142.937C223.465 142.937 223.353 143.014 223.353 143.079C223.465 144.504 223.353 146.173 221.953 146.699C221.953 146.699 221.953 146.789 221.953 146.776C223.675 146.494 223.815 144.285 223.465 142.937Z" fill="#263238"/>
<path d="M221.995 141.5C219.475 141.41 219.489 146.057 221.827 146.134C224.165 146.211 224.123 141.564 221.995 141.5Z" fill="#263238"/>
<path d="M232.536 143.169C232.536 143.169 232.662 143.233 232.648 143.297C232.648 144.722 232.816 146.378 234.229 146.853C234.229 146.853 234.229 146.943 234.229 146.93C232.494 146.712 232.214 144.517 232.536 143.169Z" fill="#263238"/>
<path d="M233.935 141.666C236.441 141.487 236.651 146.121 234.313 146.275C231.976 146.43 231.822 141.795 233.935 141.666Z" fill="#263238"/>
<path d="M220.007 139.381C220.668 139.2 221.318 138.986 221.953 138.739C222.677 138.611 223.333 138.263 223.815 137.751C223.934 137.563 223.982 137.343 223.952 137.128C223.921 136.912 223.814 136.711 223.647 136.557C223.266 136.301 222.817 136.143 222.346 136.1C221.876 136.057 221.402 136.131 220.973 136.313C220.04 136.554 219.24 137.108 218.734 137.866C218.632 138.045 218.588 138.246 218.607 138.447C218.626 138.647 218.707 138.839 218.841 138.998C218.975 139.158 219.156 139.279 219.363 139.346C219.57 139.414 219.793 139.426 220.007 139.381Z" fill="#263238"/>
<path d="M235.881 139.317C235.199 139.197 234.526 139.038 233.865 138.842C233.132 138.774 232.446 138.48 231.92 138.007C231.778 137.836 231.701 137.626 231.701 137.411C231.701 137.195 231.778 136.985 231.92 136.814C232.275 136.526 232.708 136.332 233.174 136.251C233.639 136.169 234.12 136.204 234.565 136.351C235.516 136.516 236.366 137.001 236.945 137.712C237.063 137.877 237.127 138.068 237.131 138.265C237.134 138.461 237.077 138.655 236.966 138.823C236.854 138.991 236.693 139.126 236.501 139.214C236.309 139.301 236.094 139.337 235.881 139.317Z" fill="#263238"/>
<path d="M222.037 156.277C222.415 156.61 222.793 157.073 223.437 157.124C224.019 157.108 224.591 156.981 225.117 156.752C225.117 156.752 225.215 156.752 225.187 156.829C224.963 157.111 224.66 157.333 224.31 157.471C223.96 157.609 223.576 157.658 223.199 157.612C222.877 157.536 222.586 157.374 222.367 157.145C222.147 156.915 222.008 156.631 221.967 156.328C221.869 156.264 221.981 156.225 222.037 156.277Z" fill="#263238"/>
<path d="M228.448 153.658C227.79 154.453 226.917 155.077 225.915 155.468C225.366 155.663 224.765 155.699 224.193 155.57C222.947 155.275 222.905 154.287 223.129 153.311C223.263 152.836 223.45 152.376 223.689 151.937C225.034 152.963 226.702 153.566 228.448 153.658Z" fill="#263238"/>
<path d="M225.915 155.468C225.366 155.663 224.765 155.699 224.193 155.57C222.947 155.275 222.905 154.287 223.129 153.311C223.79 153.33 224.425 153.554 224.93 153.945C225.436 154.337 225.783 154.873 225.915 155.468Z" fill="#FF9BBC"/>
<path d="M236.623 129.573C235.769 127.75 234.775 125.914 233.572 125.541C232.368 125.169 231.598 127.865 228.868 128.032C225.201 128.263 223.423 125.169 218.286 124.835C210.895 124.373 207.647 129.971 207.479 139.625C207.325 148.201 201.67 149.01 201.67 149.01C201.67 149.01 198.24 130.099 204.05 123.834C209.859 117.569 223.199 114.847 232.158 120.778C235.419 122.948 236.623 129.573 236.623 129.573Z" fill="#263238"/>
<path d="M206.387 145.646C206.387 145.646 202.09 138.367 198.548 139.689C195.007 141.012 197.638 151.244 201.348 152.951C201.813 153.208 202.329 153.375 202.866 153.443C203.404 153.511 203.95 153.479 204.473 153.348C204.997 153.217 205.485 152.991 205.911 152.682C206.336 152.373 206.688 151.989 206.947 151.552L206.387 145.646Z" fill="#F7A9A0"/>
<path d="M199.388 142.578V142.668C202.006 143.952 203.154 146.519 203.868 148.997C203.74 148.728 203.55 148.488 203.311 148.293C203.072 148.097 202.79 147.952 202.484 147.867C202.178 147.781 201.855 147.758 201.538 147.798C201.221 147.838 200.918 147.94 200.648 148.099C200.564 148.099 200.648 148.253 200.648 148.24C201.149 148.152 201.667 148.207 202.133 148.397C202.598 148.588 202.989 148.905 203.252 149.305C203.676 149.986 204.023 150.704 204.288 151.449C204.386 151.68 204.848 151.616 204.778 151.347V151.282C205.253 148.073 203.098 143.297 199.388 142.578Z" fill="#263238"/>
<path d="M235.741 123.937C233.572 123.462 221.547 123.795 216.144 125.927C210.741 128.058 201.138 135.183 200.648 135.555C200.158 135.928 197.681 117.749 213.764 114.436C231.276 110.816 235.741 123.937 235.741 123.937Z" fill="#4F81E2"/>
<path d="M201.572 134.811C201.572 134.811 212.196 121.972 218.104 119.02C224.011 116.067 237.239 114.423 245.428 117.736C251.797 120.303 236.231 127.827 236.231 127.827C236.084 127.211 235.782 126.635 235.349 126.144C234.917 125.654 234.366 125.263 233.739 125.002C229.764 123.551 222.205 124.668 217.894 125.991C212.462 127.673 201.572 134.811 201.572 134.811Z" fill="#4F81E2"/>
<path opacity="0.2" d="M201.572 134.875C201.572 134.875 212.196 121.96 218.104 119.02C224.011 116.08 237.239 114.423 245.428 117.736C251.797 120.303 236.231 127.827 236.231 127.827C236.084 127.211 235.782 126.635 235.349 126.144C234.917 125.654 234.366 125.263 233.739 125.002C229.764 123.551 222.205 124.668 217.894 125.991C212.462 127.673 201.572 134.875 201.572 134.875Z" fill="black"/>
<path d="M183.011 194.06C182.115 219.377 192.305 266.79 199.808 270.012C224.025 280.385 264.773 281.04 278.729 281.156C284.748 281.156 293.987 241.896 288.024 239.688C284.062 238.224 224.319 238.211 223.269 236.26C222.219 234.308 207.983 206.115 201.838 190.504C193.677 169.744 183.528 179.193 183.011 194.06Z" fill="#F7A9A0"/>
<path d="M281.613 239.161C281.613 239.161 299.908 240.188 311.821 241.37C318.484 242.024 329.78 244.091 334.413 246.62C341.413 250.472 367.785 270.346 362.662 276.328C358.014 281.733 337.689 261.975 337.689 261.975C337.689 261.975 360.086 280.244 353.227 285.829C346.368 291.414 326.631 266.263 326.631 266.263C326.631 266.263 349.223 285.521 341.119 290.245C335.001 293.802 315.726 271.963 315.726 271.963C315.726 271.963 335.029 288.653 328.898 292.505C322.123 296.831 302.96 277.689 302.96 277.689C285.56 285.238 273.914 282.298 265.893 279.307C263.919 278.639 281.613 239.161 281.613 239.161Z" fill="#F7A9A0"/>
<path d="M330.368 255.196C333.084 257.251 335.855 259.318 338.361 261.616C340.867 263.914 343.302 266.25 345.57 268.728C348.604 271.915 351.234 275.408 353.409 279.14C349.027 272.721 340.181 264.504 337.661 262.232C335.141 259.96 332.776 257.572 330.27 255.299C330.2 255.222 330.298 255.145 330.368 255.196Z" fill="#263238"/>
<path d="M321.255 263.362C324.601 266.122 328.03 268.767 331.25 271.668C334.469 274.57 337.213 277.561 340.195 280.655C340.419 280.886 340.195 280.925 339.957 280.655C336.849 277.689 333.728 275.16 330.592 272.22C327.456 269.28 324.419 266.225 321.171 263.4C321.115 263.387 321.199 263.323 321.255 263.362Z" fill="#263238"/>
<path d="M312.003 269.075C317.253 273.205 322.023 277.821 326.239 282.85C326.449 283.094 326.169 283.12 325.931 282.85C321.297 278.19 317.7 274.505 311.849 269.229C311.807 269.165 312.003 268.998 312.003 269.075Z" fill="#263238"/>
<path d="M332.104 244.592C327.755 242.888 323.139 241.826 318.428 241.447C308.265 240.304 298.047 239.559 287.828 238.879C277.609 238.198 267.237 237.595 256.934 237.248C251.139 237.043 245.344 236.885 239.549 236.773C233.753 236.671 232.55 236.863 226.726 236.927C226.572 236.927 226.586 237.12 226.726 237.133C236.875 237.621 242.474 238.006 252.623 238.494C262.771 238.982 272.892 239.534 283.013 240.176C293.133 240.817 303.086 241.459 313.08 242.486C317.915 242.787 322.708 243.496 327.4 244.605C331.997 246.153 336.261 248.43 339.999 251.332C344.282 254.426 360.338 268.587 361.808 270.423C361.99 270.641 362.06 270.577 361.962 270.294C360.8 266.456 341.496 248.61 332.104 244.592Z" fill="#263238"/>
<path d="M211.917 210.403L182.143 225.886C182.143 225.886 180.883 191.377 183.64 181.132C186.748 169.577 192.487 173.583 198.954 183.186C205.421 192.789 211.917 210.403 211.917 210.403Z" fill="#4F81E2"/>
<path opacity="0.1" d="M211.917 210.403L182.143 225.886C182.143 225.886 180.883 191.377 183.64 181.132C186.748 169.577 192.487 173.583 198.954 183.186C205.421 192.789 211.917 210.403 211.917 210.403Z" fill="black"/>
<path d="M207.815 205.987C203.742 207.489 192.179 213.574 190.262 214.563C189.254 215.076 185.306 217.323 184.298 217.837C184.172 217.901 184.298 218.068 184.424 218.004C186.37 217.028 188.414 216.232 190.374 215.269C192.333 214.306 204.372 208.503 207.899 206.115C207.912 206.103 207.921 206.087 207.923 206.07C207.926 206.053 207.922 206.036 207.912 206.021C207.902 206.006 207.888 205.995 207.87 205.988C207.852 205.982 207.833 205.982 207.815 205.987Z" fill="#263238"/>
<path d="M207.227 197.629C206.765 196.024 206.289 194.432 205.757 192.84C206.051 194.021 206.387 195.203 206.723 196.384C205.645 194.15 204.54 191.942 203.336 189.798H203.266C204.568 193.277 206.065 196.692 207.465 200.145C208.865 203.599 210.265 206.898 211.665 210.275C211.035 210.724 210.419 211.161 209.775 211.559C209.749 211.574 209.731 211.598 209.724 211.626C209.717 211.654 209.723 211.683 209.74 211.706C209.757 211.73 209.783 211.747 209.813 211.753C209.843 211.759 209.875 211.754 209.901 211.738C210.671 211.379 211.441 211.02 212.238 210.699C212.331 210.667 212.406 210.604 212.451 210.523C212.495 210.442 212.504 210.349 212.476 210.262C210.909 206.064 209.173 201.802 207.227 197.629Z" fill="#263238"/>
<g opacity="0.5">
<path opacity="0.5" d="M539.639 182.351C539.639 183.543 539.254 184.707 538.532 185.698C537.81 186.688 536.783 187.46 535.583 187.915C534.383 188.371 533.062 188.489 531.788 188.256C530.514 188.023 529.344 187.448 528.427 186.604C527.509 185.761 526.885 184.687 526.633 183.518C526.381 182.349 526.513 181.138 527.013 180.038C527.512 178.938 528.355 177.999 529.437 177.339C530.518 176.679 531.789 176.328 533.088 176.33C533.949 176.33 534.802 176.486 535.598 176.789C536.394 177.091 537.117 177.535 537.725 178.094C538.334 178.654 538.816 179.318 539.144 180.048C539.473 180.779 539.641 181.561 539.639 182.351Z" fill="#4F81E2"/>
<path opacity="0.5" d="M533.088 192.558C530.867 192.571 528.692 191.977 526.84 190.854C524.988 189.73 523.542 188.127 522.685 186.247C521.829 184.368 521.602 182.298 522.031 180.299C522.461 178.301 523.529 176.465 525.1 175.025C526.67 173.585 528.672 172.605 530.85 172.211C533.029 171.817 535.287 172.025 537.336 172.811C539.385 173.596 541.133 174.922 542.358 176.621C543.583 178.32 544.23 180.315 544.216 182.351C544.198 185.053 543.02 187.639 540.937 189.55C538.853 191.46 536.034 192.541 533.088 192.558ZM533.088 173.429C531.167 173.429 529.289 173.95 527.69 174.928C526.092 175.906 524.845 177.295 524.107 178.922C523.368 180.549 523.172 182.34 523.541 184.069C523.911 185.798 524.831 187.388 526.184 188.638C527.538 189.888 529.265 190.743 531.147 191.095C533.03 191.446 534.984 191.279 536.763 190.613C538.541 189.948 540.066 188.814 541.143 187.355C542.22 185.896 542.803 184.177 542.816 182.416C542.826 181.238 542.581 180.071 542.096 178.981C541.611 177.891 540.896 176.9 539.992 176.065C539.088 175.229 538.012 174.566 536.827 174.114C535.642 173.662 534.371 173.429 533.088 173.429Z" fill="#4F81E2"/>
<path opacity="0.5" d="M138.203 124.771C138.206 125.963 137.823 127.128 137.103 128.12C136.383 129.112 135.359 129.885 134.16 130.343C132.96 130.801 131.64 130.922 130.365 130.691C129.091 130.46 127.92 129.888 127 129.046C126.081 128.205 125.454 127.132 125.2 125.963C124.945 124.795 125.075 123.584 125.571 122.483C126.067 121.382 126.909 120.441 127.989 119.778C129.069 119.116 130.339 118.763 131.638 118.763C133.376 118.763 135.044 119.395 136.275 120.522C137.506 121.648 138.199 123.176 138.203 124.771Z" fill="#4F81E2"/>
<path opacity="0.5" d="M131.638 134.99C129.42 135.003 127.248 134.412 125.397 133.291C123.546 132.17 122.1 130.57 121.242 128.695C120.384 126.819 120.152 124.752 120.576 122.756C121 120.759 122.061 118.923 123.624 117.48C125.188 116.037 127.183 115.053 129.357 114.651C131.531 114.25 133.787 114.449 135.837 115.225C137.887 116 139.64 117.317 140.874 119.007C142.107 120.697 142.766 122.686 142.766 124.72C142.766 127.433 141.596 130.035 139.511 131.96C137.426 133.884 134.596 134.974 131.638 134.99ZM131.638 115.848C129.694 115.836 127.79 116.354 126.168 117.336C124.546 118.319 123.279 119.722 122.529 121.366C121.778 123.011 121.578 124.823 121.954 126.573C122.33 128.322 123.265 129.929 124.639 131.19C126.014 132.45 127.766 133.308 129.673 133.652C131.581 133.997 133.557 133.814 135.35 133.126C137.143 132.437 138.673 131.276 139.744 129.788C140.816 128.3 141.38 126.554 141.366 124.771C141.348 122.41 140.317 120.15 138.497 118.48C136.676 116.811 134.212 115.865 131.638 115.848Z" fill="#4F81E2"/>
<path opacity="0.5" d="M379.333 214.139H294.505V93.8691H182.563V125.413H142.066V124.129H181.163V92.5852H295.905V212.855H377.933V179.54H473.946V147.097H533.788V172.787H532.388V148.381H475.346V180.824H379.333V214.139Z" fill="#4F81E2"/>
</g>
<path d="M154.944 62.1967C153.783 51.5152 145.748 40.8721 131.638 40.8721C117.528 40.8721 109.507 51.5665 108.345 62.1967C106.567 78.6941 118.689 93.638 131.638 107.272C144.586 93.6893 156.722 78.7454 154.944 62.1967ZM131.638 74.0594C129.112 74.0594 126.643 73.3724 124.544 72.0853C122.444 70.7981 120.808 68.9687 119.842 66.8285C118.876 64.6883 118.624 62.3334 119.118 60.0618C119.612 57.7902 120.829 55.704 122.616 54.067C124.402 52.43 126.678 51.3159 129.156 50.8656C131.633 50.4152 134.2 50.6489 136.533 51.5371C138.865 52.4253 140.858 53.928 142.259 55.8552C143.66 57.7823 144.407 60.0473 144.404 62.3636C144.411 63.9049 144.086 65.4324 143.448 66.8581C142.81 68.2839 141.87 69.5799 140.684 70.6716C139.497 71.7632 138.087 72.6291 136.535 73.2193C134.983 73.8095 133.318 74.1125 131.638 74.1108V74.0594Z" fill="#4F81E2"/>
</svg>
